<?xml version="1.0" encoding="utf-8"?>
<!-- Generator: Adobe Illustrator 28.1.0, SVG Export Plug-In . SVG Version: 6.00 Build 0)  -->
<svg version="1.1" id="Layer_1" xmlns="http://www.w3.org/2000/svg" xmlns:xlink="http://www.w3.org/1999/xlink" x="0px" y="0px"
	 viewBox="0 0 612 792" style="enable-background:new 0 0 612 792;" xml:space="preserve">
<style type="text/css">
	.st0{display:none;}
	.st1{display:inline;fill:#BAB8C6;}
	.st2{display:inline;fill:#D1CFDB;}
	.st3{display:inline;fill:#F6F6FB;}
	.st4{display:inline;fill:#787C99;}
	.st5{display:inline;fill:#E9BBD7;}
	.st6{fill:#595F89;}
	.st7{fill:#A3B4C7;}
	.st8{fill:#2E3165;}
	.st9{fill:#2D3448;}
	.st10{fill:#F6BCB1;}
	.st11{fill:url(#SVGID_1_);}
	.st12{fill:#444587;}
	.st13{fill:#82579E;}
	.st14{fill:#284781;}
	.st15{fill:url(#SVGID_00000104670314777436906320000000066089331931028868_);}
	.st16{fill:#603B81;}
	.st17{fill:#783773;}
	.st18{fill:#B96285;}
	.st19{fill:#FACDD4;}
	.st20{fill:#76B6B9;}
	.st21{fill:#B3DFD3;}
	.st22{fill:#89CCD6;}
	.st23{fill:#F2AF51;}
	.st24{fill:url(#SVGID_00000168080794995681156430000010480761610700407943_);}
	.st25{fill:#9466A9;}
	.st26{fill:#252A49;}
	.st27{fill:#F2A9AA;}
	.st28{fill:#EAD962;}
	.st29{fill:#E49492;}
	.st30{fill:#9676B2;}
	.st31{fill:#675B96;}
	.st32{fill:#31649D;}
	.st33{fill:#397DAF;}
	.st34{fill:#428CB6;}
	.st35{fill:#C27585;}
	.st36{fill:url(#SVGID_00000173880543100346686770000011191144712471550384_);}
	.st37{fill:#E5A7B4;}
	.st38{fill:#F6F6FB;}
	.st39{fill:#8A475E;}
	.st40{fill:#F6D1C4;}
	.st41{fill:#D26290;}
	.st42{fill:#DA738F;}
	.st43{fill:#FAEEEF;}
</style>
<g>
	<g id="Background_00000140711178446114626370000010242961264916605850_" class="st0">
		<path class="st1" d="M106.99,592.6c0-197.65,0-197.65,0-395.31c198.82,0,198.82,0,397.64,0c0.02,36.76-0.03,73.52,0,110.28
			c-1.34,95.77-0.93,191.57-1.16,287.36c-0.22,0.05-0.53-0.03-0.78,0c-0.1-0.97-0.1-0.97-0.19-1.94
			C370.67,591.48,238.82,592.68,106.99,592.6z"/>
		<path class="st2" d="M502.69,594.93c-197.85,0-197.85,0-395.7,0c0-1.16,0-1.16,0-2.33c131.83,0.07,263.68-1.12,395.5,0.39
			C502.59,593.96,502.59,593.96,502.69,594.93z"/>
		<path class="st3" d="M504.63,307.58c0.08,95.79-0.06,191.57,0,287.36c-0.37,0.05-0.83-0.08-1.16,0
			C503.7,499.15,503.29,403.35,504.63,307.58z"/>
		<path class="st3" d="M253.77,392.23c0.25,3.95,1.1,7.99,2.72,11.65c0.54,1.22,0.94,2.94,1.94,3.88c-0.7,4.66-6.76,1.96-10.1,2.72
			c-3.67,0.83-2.15,5.71-2.33,11.26c-0.1,3.02-0.07,5.53,0,8.54c0.09,4.07-0.07,8.16,0,12.23c0.53,1.49,7.37,2.05,8.93,2.14
			c-0.94,7.73,0.49,30-2.72,35.14c-3.63,5.82-26.9,12.93-29.12,14.95c-0.58-0.49-0.58-0.49-1.16-0.97
			c-5.63-73.59-5.63-73.59-11.26-147.17c-1.35-5.42-2-8.68-8.15-7.96c-2.92,0.34-16.68,5.12-21.36,6.6
			c20.65-31.99,45.93-57.02,79.22-75.72c-7.28,11.75-12.01,24.09-13.59,37.86C226.57,328.12,217.53,383.42,253.77,392.23z"/>
		<path class="st3" d="M457.25,459.02c-6.1-4.09-46.57-20.72-48.54-22.52c-0.39-0.35-0.65-1.07-1.16-1.36
			c-0.72-6.16,0.81-38.04,0.39-40c-0.29-1.32-1.85-2.03-1.94-2.14c-1.02-1.22-2.14-1.23-2.33-1.75c0.19-4.95,0.19-4.95,0.39-9.9
			c2.22-2.48,2.51-2.58,4.27-5.82c0.69-1.27,1.27-2.61,1.94-3.88c0.26-0.02,0.52,0.02,0.78,0c4.03-0.29,10.55,0.68,11.65-4.85
			c0.39-1.96,0.44-38.05,0-40c-1.09-4.77-8.8-3.1-12.43-3.3c-5.01-0.28-3.67-0.78-3.88-0.78c-1.37-10.96-2.09-22.41-5.44-33.01
			c36.02,47.69,55.21,77.76,57.47,139.6C458.83,440.64,457.97,448.27,457.25,459.02z"/>
		<path class="st3" d="M451.23,304.86c1.83,5.82-1.4,10.41,6.02,11.07c0.2,0.85-4.85,0.53-5.44,2.72
			c-0.68,5.73-0.68,5.73-1.36,11.46c-0.49-5.92-0.49-5.92-0.97-11.84c-1.56-2.94-10.81-0.15,0.39-4.27
			C450.55,309.42,450.55,309.42,451.23,304.86z"/>
		<path class="st3" d="M215.14,275.74c0.53,7.55,3.66,6.3,3.69,6.8c0.06,1.13-4.07-2.29-4.47,8.74c-0.78-3.86,0.3-7.1-4.08-8.35
			c2.9-1.48,0.78-2.86,1.16-3.49C211.61,279.16,214.03,281.46,215.14,275.74z"/>
		<path class="st3" d="M149.9,443.1c0.56,3.62-0.76,6.26,3.69,6.8c-4.96,0.89-3.1,2.97-4.08,7.57c-0.58-3.37,0.11-6.15-3.69-7.18
			C147.9,447.48,149.09,449.46,149.9,443.1z"/>
		<path class="st4" d="M447.55,539.02c0.05-0.5-0.08-1.07,0-1.55C472.01,538.22,472.1,538.86,447.55,539.02z"/>
		<path class="st2" d="M469.49,536.69c2.41-0.77,2.76,2.14,1.55,2.72C469.16,540.31,467.59,537.29,469.49,536.69z"/>
		<path class="st5" d="M232.61,476.89c6.05-0.71,5.01,9.99-0.78,7.38C228.74,482.87,229.38,477.27,232.61,476.89z"/>
		<path class="st5" d="M425.22,416.31c5.16-1.39,5.86,6.17,2.33,6.99C422.34,424.51,421.91,417.2,425.22,416.31z"/>
		<path class="st5" d="M432.98,381.75c5.75-0.96,4.26,9.2-1.16,6.21C429.27,386.55,430.72,382.12,432.98,381.75z"/>
	</g>
	<g>
		<g>
			<path class="st6" d="M400.17,536.69c0.52,0.75,1.49,1.32,1.55,2.33c-10.22-0.01-20.47-0.38-30.68-0.39
				c0.07-0.62-0.11-1.36,0-1.94C385.61,536.69,385.61,536.69,400.17,536.69z"/>
			<path class="st7" d="M393.57,526.2c2.89,3.03,4.24,7.1,6.6,10.48c-14.56,0-14.56,0-29.12,0c0.08-0.43-0.2-1.31,0.19-1.55
				c0.71-0.44,9.54-0.07,13.79-8.15C386.31,526.19,391.23,526.77,393.57,526.2z"/>
		</g>
		<g>
			<path class="st8" d="M358.23,526.59c1.04-0.13,3.14-0.66,3.88-1.16c4.05,1.29,20.14-0.59,22.13,0.78
				c0.57,0.39,0.3,0.78,0.78,0.78c-4.24,8.08-13.08,7.71-13.79,8.15c-0.39,0.25-0.11,1.12-0.19,1.55c-0.11,0.58,0.07,1.32,0,1.94
				c-76.69-0.09-153.39,0.07-230.08,0.39c-2.75-0.41-7-0.87-1.16-1.55c9.2-1.09,48.8,1.47,50.87,0c2.24-1.59-8.04-5.92-12.81-8.93
				c-1.06-0.67-3.55-2.33-3.69-3.11c24.73,0.54,49.43,1.86,74.17,1.55c1.46-0.02,2.75,0.08,4.27,0c2-0.1,4.02,0.07,6.02,0
				c-0.39-2.52-0.39-2.52-0.78-5.05c2.44,2.68,2.31,5.8,5.05,5.05c-2.02-8.57-0.42-4.94,2.33,0
				C311.73,526.78,311.73,526.78,358.23,526.59z"/>
			<path class="st9" d="M400.95,289.72c3.35,10.6,4.07,22.05,5.44,33.01c-0.18,0-0.55,0.32-3.49,0.39
				c-0.91-17.05-3.18-29.79-11.65-44.66c-4.78-8.39-14.52-21.34-23.69-24.85c-39.14-27.42-96.75-9.22-112.61,35.92
				c-2.16,6.14-3.11,12.47-4.27,18.83c-3.76,20.67-4.78,41.85,1.94,62.13c-1.7,0.03-1.6-3.34-1.75-3.49
				c-1.62-1.7-2.47,0.88-3.3-0.58c-0.28-1.22,0.14-5.54-1.16-4.47c-1.91-15.19-2.1-32.73-0.78-47.96
				c-12.83,17.99-19.3,53.03-1.94,69.7c4.36,4.19,5.07,3.21,8.35,5.44c0.67,0.45-0.8,0.81,0.39,1.94c0.74,0.71,6.16,0.7,6.02,1.94
				c-1.45-0.25-3.36-0.46-4.66-0.78c-36.25-8.81-27.21-64.11-6.99-84.85c1.58-13.77,6.31-26.11,13.59-37.86
				C297.23,217.93,381.54,228.29,400.95,289.72z"/>
			<path class="st10" d="M283.67,502.51c7.48-0.42,17.95,3.1,25.63,4.27c1.25,3.11,2.91,6.24,4.27,9.32
				c0.06,0.13,0.14,0.99,0.78,1.94c-8.58,0.11-56.35,1.33-60.38,0.39c-1.79-0.42-3.29-3.25-5.82-3.49
				c-5.6-0.53-4.31,6.65-15.92-0.78c-2.94-0.02-6.25,0.15-8.74-1.55c0.01-0.23-1.13-1.61,0.19-2.72c16.26,1.74-0.23-0.26-0.58-0.97
				c-1.11-2.29,5.29-9.07,14.17-4.85c0.58-0.47,1.02-1.28,1.75-1.55c9.95-3.76,16.32,0.48,17.67,10.87
				C264.25,510.13,275.72,502.96,283.67,502.51z"/>
			<g>
				<linearGradient id="SVGID_1_" gradientUnits="userSpaceOnUse" x1="328.8176" y1="420.1704" x2="151.6372" y2="465.5464">
					<stop  offset="0" style="stop-color:#8264A8"/>
					<stop  offset="0.6072" style="stop-color:#A37FBA"/>
					<stop  offset="1" style="stop-color:#77407C"/>
				</linearGradient>
				<path class="st11" d="M202.52,338.64c3.7,60.59,8.47,121.17,14.76,181.54c0.9,3.71,6.18,2.99,6.6,0.78
					c0.08-0.41-0.49-3.68-0.39-8.35c2.49,1.7,5.8,1.53,8.74,1.55c11.62,7.42,10.32,0.25,15.92,0.78c2.54,0.24,4.03,3.08,5.82,3.49
					c4.03,0.94,51.8-0.28,60.38-0.39c4.72-0.06,9.64-0.7,14.37-0.78c5.53-0.09,29.79-0.32,31.84,0c0.42,3.28-2.74,5.97-2.33,9.32
					c-46.5,0.19-46.5,0.19-93,0.39c-2.75-4.94-4.35-8.57-2.33,0c-2.73,0.76-2.61-2.37-5.05-5.05c0.39,2.52,0.39,2.52,0.78,5.05
					c-2,0.07-4.02-0.1-6.02,0c-0.94-5.21-4.68-5.91-4.27,0c-24.74,0.3-49.44-1.02-74.17-1.55c-4.69-0.29-9.62,1.33-12.43-3.3
					c-5.56-55.19-6.09-110.78-8.15-166.2c0.78-2.58,23.78-9.48,27.57-10.68C185.83,343.76,199.59,338.99,202.52,338.64z"/>
				<path class="st12" d="M223.1,494.75c-2.24,2.04-0.44,8.11,0.19,11.26c6.43-7.68,12.41-2.58,13.59-2.72
					c0.24-0.03,2.28-2.63,2.14-0.78c-0.73,0.27-1.16,1.09-1.75,1.55c-8.89-4.21-15.29,2.57-14.17,4.85
					c0.35,0.71,16.85,2.71,0.58,0.97c-1.32,1.11-0.19,2.49-0.19,2.72c-0.1,4.67,0.47,7.94,0.39,8.35c-0.42,2.22-5.7,2.93-6.6-0.78
					c-6.28-60.36-11.05-120.95-14.76-181.54c6.15-0.72,6.81,2.54,8.15,7.96c5.63,73.59,5.63,73.59,11.26,147.17
					C222.51,494.26,222.51,494.26,223.1,494.75z"/>
				<path class="st13" d="M362.12,525.43c-0.75,0.51-2.85,1.04-3.88,1.16c-0.41-3.35,2.75-6.04,2.33-9.32
					C366.65,518.22,365.26,523.29,362.12,525.43z"/>
				<path class="st12" d="M252.61,526.98c-1.52,0.08-2.81-0.02-4.27,0C247.93,521.07,251.67,521.77,252.61,526.98z"/>
			</g>
			<path class="st14" d="M287.56,424.85c0.19,1.94,0.19,1.94,0.39,3.88c-0.05,0.01-0.12,0.67-0.78,0.78
				c-3.82-3.88-7.7-3.84-8.54,0.97c-1.3,7.47,1.88,51.91,3.11,62.13c0.33,2.77,1,7.4,1.94,9.9c-7.95,0.45-19.42,7.62-26.99,10.87
				c-1.35-10.39-7.72-14.63-17.67-10.87c0.15-1.85-1.9,0.75-2.14,0.78c-1.18,0.14-7.16-4.96-13.59,2.72
				c-0.63-3.15-2.43-9.22-0.19-11.26c2.22-2.02,25.5-9.13,29.12-14.95c3.21-5.15,1.77-27.42,2.72-35.14
				c0.16,0.01-0.2-0.45,3.11-0.39c3.95,0.07,8.75,0.51,12.04-0.78c6.87-2.68,2.78-15.05,3.88-20.97
				C278.46,423.53,283.45,423.5,287.56,424.85z"/>
			
				<linearGradient id="SVGID_00000017517196309196779160000006180152594393720980_" gradientUnits="userSpaceOnUse" x1="381.657" y1="273.9496" x2="383.3264" y2="321.6838">
				<stop  offset="0" style="stop-color:#36A2C6"/>
				<stop  offset="1" style="stop-color:#32478B"/>
			</linearGradient>
			<path style="fill:url(#SVGID_00000017517196309196779160000006180152594393720980_);" d="M391.24,278.45
				c8.47,14.87,10.74,27.61,11.65,44.66c-3.54,0.08-10.57-0.29-11.65,4.47c-0.44,1.91-0.35,37.29,0,39.22
				c1.23,6.8,10.87,5.39,19.03,4.85c-0.68,1.28-1.25,2.61-1.94,3.88c-5.33,0.15-13.49,2.27-17.86-1.94
				c-4.91-4.73-2.86-30.13-3.11-38.06c-0.24-7.51,1.74-12.15-7.77-13.98c0.16-1.4,0.16-15.54,0-17.67
				c-0.03-0.38-1.29-1.57-0.78-7.38c-4.8-17.54-11.31-25.57-22.91-38.64c0.49,0.03,0.38-0.33,0.39-0.78
				C366.66,266.19,379.28,271.86,391.24,278.45z"/>
			<path class="st8" d="M406,393.01c0.09,0.11,1.66,0.81,1.94,2.14c0.42,1.95-1.11,33.83-0.39,40c0.51,0.29,0.78,1.01,1.16,1.36
				c0.71,17.49,0.4,34.94,0,52.42c-2.33,0-2.33,0-4.66,0c-0.78-5.5-2.23-16.65-2.33-21.55c-0.13-6.84,1.94-3.17,2.72-8.15
				c0.19-1.23,0.55-14.17,0.39-15.14c-0.46-0.26-1.03-0.31-1.16-0.97c-2.44-12.44-7.47-22.49-19.42-28.35
				c-0.66-0.33-1.27-0.52-1.94-0.78c-0.23-1.76-5.04-1.53-3.3-2.72c25.54-7.68,23.78-17.78,25.05-18.83
				C404.44,392.11,405.43,393.22,406,393.01z"/>
			<g>
				<path class="st13" d="M410.27,323.5c0.55,8.82-0.74,44.22,0,47.57c0.07,0.32,0.83,0.02,0.78,0.58c-0.26,0.02-0.52-0.02-0.78,0
					c-8.15,0.54-17.8,1.95-19.03-4.85c-0.35-1.93-0.44-37.31,0-39.22c1.08-4.75,8.11-4.39,11.65-4.47c2.94-0.07,3.32-0.39,3.49-0.39
					C406.6,322.72,405.26,323.22,410.27,323.5z"/>
				<path class="st16" d="M411.04,371.65c0.06-0.57-0.71-0.27-0.78-0.58c-0.74-3.34,0.55-38.75,0-47.57
					c3.62,0.2,11.34-1.47,12.43,3.3c0.44,1.95,0.39,38.04,0,40C421.6,372.33,415.08,371.36,411.04,371.65z"/>
			</g>
			<path class="st8" d="M408.33,375.53c-1.76,3.25-2.05,3.34-4.27,5.82c-5.4,6.04-6.43,5.4-13.2,8.54
				c2.46-5.57,0.19-10.75-0.39-16.31C394.83,377.8,402.99,375.68,408.33,375.53z"/>
			<path class="st17" d="M408.71,488.92c-0.24,10.37,1.97,21.21-5.05,30.09c-1.76,2.24-7.42,6.53-10.1,7.18
				c-2.34,0.57-7.26-0.01-8.54,0.78c-0.48,0.01-0.2-0.38-0.78-0.78c-1.27-1.23,3.85-2.28,8.35-5.82
				c10.02-7.91,12.67-19.2,11.46-31.45C406.38,488.92,406.38,488.92,408.71,488.92z"/>
			<g>
				<path class="st18" d="M457.25,459.02c-1.93,29.03-5,50.06-9.71,78.44c-0.08,0.49,0.05,1.05,0,1.55
					c-15.27,0.1-30.55,0.01-45.82,0c-0.06-1.01-1.03-1.58-1.55-2.33c-2.36-3.38-3.71-7.45-6.6-10.48c2.67-0.65,8.33-4.95,10.1-7.18
					c7.02-8.89,4.81-19.73,5.05-30.09c0.4-17.49,0.71-34.94,0-52.42C410.69,438.31,451.15,454.93,457.25,459.02z"/>
				<path class="st19" d="M435.7,502.9c2.4-0.82,3.42,2.75,1.55,3.49C434.28,507.59,433.99,503.48,435.7,502.9z"/>
			</g>
			<path class="st20" d="M367.55,253.6c-2.44-0.93-10.64-3.05-11.65,0.58c-0.27,0.96,0.4,1.87,0.39,2.91c0,0.45,0.11,0.81-0.39,0.78
				c-2.98-3.36-6.49-11.16-15.14-9.71c-2.15,0.36-6.79,2.74-7.38,5.05c-40.29-9.32-69.38,20.34-82.71,55.14
				c1.16-6.36,2.11-12.69,4.27-18.83C270.8,244.38,328.42,226.18,367.55,253.6z"/>
			<path class="st21" d="M246.4,361.94c1.1,8.77,2.96,17.46,5.82,25.82c-0.32,1.93-7.79-3.71-8.54-4.08
				c-17.35-16.68-10.88-51.71,1.94-69.7C244.3,329.21,244.48,346.76,246.4,361.94z"/>
			<path class="st22" d="M367.55,253.6c9.17,3.51,18.9,16.46,23.69,24.85c-11.96-6.59-24.58-12.26-34.95-21.36
				c0.01-1.04-0.65-1.95-0.39-2.91C356.91,250.55,365.11,252.67,367.55,253.6z"/>
			<g>
				<path class="st14" d="M403.67,443.1c0.13,0.66,0.71,0.71,1.16,0.97c0.16,0.97-0.2,13.92-0.39,15.14
					c-0.77,4.98-2.85,1.32-2.72,8.15c0.1,4.9,1.55,16.05,2.33,21.55c1.21,12.25-1.44,23.54-11.46,31.45
					c-4.49,3.55-9.62,4.6-8.35,5.82c-2-1.37-18.09,0.51-22.13-0.78c3.14-2.13,4.54-7.2-1.55-8.15c-2.06-0.32-26.32-0.09-31.84,0
					c-1.36,0.26-0.7-1.99-0.78-2.72c32.28-5.87,76.08-4.64,66.01-50.68c-10.19-0.11-14.83,0.35-13.2-11.46
					c0.16-1.15,0.4-2.85,0.78-3.88c1.35-3.69,4.18-5.48,4.27-5.82C394.73,442.91,394.73,442.91,403.67,443.1z"/>
				<path class="st23" d="M386,453.2c2.18-0.66,2.87,2.62,1.16,3.11C385.1,456.89,384.34,453.7,386,453.2z"/>
			</g>
			
				<linearGradient id="SVGID_00000119111879286037001020000008077485150307226764_" gradientUnits="userSpaceOnUse" x1="274.8718" y1="438.1667" x2="337.6815" y2="504.901">
				<stop  offset="0" style="stop-color:#325596"/>
				<stop  offset="1" style="stop-color:#223D75"/>
			</linearGradient>
			<path style="fill:url(#SVGID_00000119111879286037001020000008077485150307226764_);" d="M287.17,429.51
				c0.08,0.08-0.53,0.74,1.36,1.94c2.65-1.12,2,0.36,2.14,0.39c-0.76-0.63-1.31-0.04-1.16,0.97c0.16,1.16,11.46,17.08,13.4,19.22
				c4.32,0.38,16.08-0.51,18.25,0c0.33,0.08,0.15,0.76,0.19,0.78c-12.13,0-12.13,0-24.27,0c-0.8,0.54-0.52,1.14-0.58,1.16
				c-1.16,0.55-3.03,1.21-3.11,1.36c-0.09,0.17-0.49,3.72-0.39,3.88c0.42,0.7,3-1.29,4.27,0.58c0.39,1.33,2.16,4.17,3.11,5.44
				c-1.56,1.61-0.38,4.4-0.39,5.05c-0.05,2.52-0.23,9.11,0,10.48c-2.77,2.13-2.11,3.79,1.16,4.27c4.25,0.63,17.01-0.47,23.11,0
				c1-0.44,0.53-6.61,0.58-8.54c11.26-8.15,11.26-8.15,22.52-16.31c2.84,4.57,11.63,14.81,15.92,20.97
				c0.85,1.22,2.05,2.63,2.72,3.88c0.6,1.11,2.26,1.71,0.19,2.72c-1.84,0.9-35.23,7.26-40.19,8.15c-2.82,0.51-18.32,2.19-19.22,2.72
				c-0.29,0.29-0.29,0.29-0.58,0.58c1.37,2.39,2.09,5.05,3.11,7.57c-7.68-1.17-18.15-4.7-25.63-4.27c-0.94-2.5-1.61-7.13-1.94-9.9
				c-1.23-10.22-4.41-54.66-3.11-62.13C279.47,425.67,283.35,425.63,287.17,429.51z"/>
			<g>
				<path class="st13" d="M327.94,514.55c0.08,0.73-0.59,2.98,0.78,2.72c-4.73,0.08-9.64,0.71-14.37,0.78
					c-0.64-0.95-0.72-1.81-0.78-1.94c-0.67-3.97,13.22,0.87,13.98-3.11C327.68,514.19,327.93,514.39,327.94,514.55z"/>
				<path class="st25" d="M326,495.91c0.69,5.68,0.95,11.4,1.55,17.09c-0.76,3.97-14.65-0.86-13.98,3.11
					c-1.37-3.08-3.02-6.21-4.27-9.32c-1.02-2.53-1.73-5.18-3.11-7.57c0.29-0.29,0.29-0.29,0.58-0.58
					C307.68,498.11,323.18,496.42,326,495.91z"/>
			</g>
			<path class="st26" d="M374.93,350.68c2.43,18.95-8.64,28.86-24.85,35.34c-3.25-0.03-1.32-1.58-3.49-1.94
				c7.56-4.21,14.95-27.63,21.75-31.07C369.44,353.36,374.28,351.17,374.93,350.68z"/>
			<path class="st25" d="M387.36,335.54c-3.59,1.5-7.89-2.79-10.1-5.44c0.89-3.5,1.09-4.44,1.55-7.96c0.04-0.31,0.77-0.53,0.78-0.58
				C389.1,323.39,387.12,328.02,387.36,335.54z"/>
			<path class="st27" d="M374.93,350.68c-0.65,0.48-5.49,2.68-6.6,2.33c2.84-4.43,7.69-17.05,8.93-21.75
				C380.85,336.76,380.35,346.66,374.93,350.68z"/>
			<path class="st14" d="M357.07,418.25c0,0.19,0,0.19,0,0.39c-0.47-0.04-0.36,0.34-0.39,0.39c-4.87,6.9-18.7,18.5-12.04,36.11
				c0.71,1.89,1.67,3.36,2.72,5.05c-11.26,8.15-11.26,8.15-22.52,16.31c0.11-4.48,0.85-20.34-1.55-22.91
				c8.15-6.44,13.9-15.16,19.61-23.69c-11.9,2.69-41.44,4.19-52.23,1.94c-0.14-0.03,0.52-1.51-2.14-0.39
				c-1.89-1.2-1.28-1.86-1.36-1.94c0.66-0.1,0.72-0.77,0.78-0.78c0.88-0.13,9.04,1.1,11.07,1.16c6.41,0.21,38.84-0.87,42.72-3.49
				c0.9-0.61-0.03-3.55-0.97-4.27C345.27,421.33,352.44,419.47,357.07,418.25z"/>
			<g>
				<g>
					<path class="st25" d="M248.34,410.48c2.88,1.36,7.89-1.21,9.32,2.14c0.7,1.63,1.05,27.36,0.39,31.65
						c-3.31-0.06-2.95,0.4-3.11,0.39c-1.56-0.09-8.4-0.64-8.93-2.14c-0.07-4.07,0.09-8.16,0-12.23c3.11-0.1,3.11-0.1,6.21-0.19
						c0-4.08,0-4.08,0-8.15c-3.11-0.1-3.11-0.1-6.21-0.19C246.19,416.19,244.67,411.32,248.34,410.48z"/>
					<path class="st28" d="M246.01,430.29c-0.07-3.01-0.1-5.52,0-8.54c3.11,0.1,3.11,0.1,6.21,0.19c0,4.08,0,4.08,0,8.15
						C249.11,430.19,249.11,430.19,246.01,430.29z"/>
				</g>
				<g>
					<path class="st16" d="M268.53,421.36c0.89,3.53-0.07,20.94,0.39,21.94c0.16,0.35,0.82,0.16,1.16,0.19
						c-3.29,1.28-8.08,0.85-12.04,0.78c0.67-4.29,0.31-30.01-0.39-31.65c-1.43-3.35-6.44-0.78-9.32-2.14
						c3.34-0.76,9.4,1.94,10.1-2.72c0.14,0.13,2.89,0.48,3.49,1.75C263.07,411.89,260.16,418.11,268.53,421.36z"/>
					<path class="st8" d="M273.97,422.52c-1.1,5.92,2.98,18.29-3.88,20.97c-0.34-0.04-1,0.16-1.16-0.19
						c-0.46-1,0.5-18.41-0.39-21.94C268.79,421.46,273.01,422.31,273.97,422.52z"/>
				</g>
			</g>
			<g>
				<path class="st29" d="M403.67,443.1c-8.93-0.19-8.93-0.19-17.86-0.39c0-0.19,0-0.19,0-0.39c2.72-0.49,2.72-0.49,5.44-0.97
					c-1.3-9.21-2.89-18.17-6.99-26.6C396.19,420.61,401.23,430.67,403.67,443.1z"/>
				<path class="st10" d="M382.31,413.98c0.67,0.26,1.28,0.45,1.94,0.78c4.1,8.43,5.69,17.39,6.99,26.6
					c-2.72,0.49-2.72,0.49-5.44,0.97c-6.61-10.9-17.04-18.87-28.74-23.69c0-0.19,0-0.19,0-0.39c3.73-0.99,16.65-6.11,18.83-6.21
					C378.21,412.02,380.24,413.18,382.31,413.98z"/>
			</g>
			<g>
				<path class="st8" d="M383.86,405.82c0.64-0.61-1.6-1.92-1.75-1.94c-1.16-0.15-19.06,5.86-22.52,6.6
					c-9.23,1.98-18.77,2.98-28.15,3.88c-3.71,0.36-7.55,0.95-11.26,1.16c1.79-5.47-6.68-2.42-9.9-2.33
					c-12.28,0.35-24.49-0.54-36.7-1.94c-0.19-1.42-0.99-2.77-0.78-4.27c24.73,2.48,52.1,0.92,76.5-3.88
					c-1.43,1.8,2.62,4.57,2.91,1.94c2.54,1.12,8.85-0.64,12.43-1.55c12.99-3.31,25.37-9.16,37.67-14.37
					C404.7,397.22,390.39,403.41,383.86,405.82z"/>
				<path class="st8" d="M350.08,386.02c-10.51,4.2-22.21,6.41-33.4,7.77c-2.16-1.96,0.38-1.59,0.39-2.72
					c6.76-0.49,12.98-2.49,19.42-4.27c0.7-0.19,6.11-0.5,10.1-2.72C348.76,384.44,346.82,385.99,350.08,386.02z"/>
				<g>
					<path class="st13" d="M387.36,335.54c0.25,7.92-1.8,33.32,3.11,38.06c0.58,5.56,2.85,10.74,0.39,16.31
						c-13.08,6.07-27.26,10.39-41.55,13.2c-24.4,4.8-51.77,6.36-76.5,3.88c-5.53-0.55-11.16-0.79-16.31-3.11
						c-1.62-3.66-2.47-7.7-2.72-11.65c1.3,0.32,3.21,0.52,4.66,0.78c16.9,2.93,41.16,2.85,58.25,0.78
						c11.19-1.36,22.89-3.57,33.4-7.77c16.22-6.48,27.29-16.39,24.85-35.34c5.43-4.02,5.92-13.92,2.33-19.42
						c0.09-0.34-0.09-0.83,0-1.16C379.46,332.74,383.76,337.04,387.36,335.54z"/>
					<path class="st30" d="M374.35,379.42c8.01-1.86,3.74,8.74-1.55,5.82C370.03,383.72,372.32,379.89,374.35,379.42z"/>
				</g>
				<path class="st31" d="M331.44,414.37c2.78,2.55,2.92,3.36,0,5.05c-13.23,1.75-30.61,2.46-43.88,1.55
					c-0.45-1.91-2.03-3.04-0.58-5.05c11.07-0.08,22.14,0.25,33.2-0.39C323.89,415.32,327.72,414.72,331.44,414.37z"/>
				<path class="st12" d="M320.18,415.53c-11.06,0.64-22.13,0.31-33.2,0.39c-1.45,2.01,0.13,3.14,0.58,5.05
					c-4.24-0.29-8.42-0.51-12.62-1.16c-1.09-0.64-1.17-7.14-1.36-8.54c12.2,1.4,24.41,2.3,36.7,1.94
					C313.5,413.11,321.97,410.06,320.18,415.53z"/>
				<path class="st12" d="M383.86,405.82c-12.25,4.53-39.64,11.9-52.42,13.59c2.92-1.68,2.78-2.5,0-5.05
					c9.39-0.9,18.92-1.91,28.15-3.88c3.46-0.74,21.36-6.75,22.52-6.6C382.26,403.9,384.5,405.21,383.86,405.82z"/>
				<g>
					<path class="st8" d="M406,393.01c-0.56,0.22-1.56-0.9-1.94-0.58c-1.26,1.05,0.49,11.16-25.05,18.83
						c-1.74,1.19,3.07,0.96,3.3,2.72c-2.07-0.8-4.09-1.95-6.41-1.94c-2.18,0.11-15.1,5.23-18.83,6.21
						c-4.63,1.22-11.8,3.08-16.31,3.88c-17.57,3.14-35.42,3.11-53.2,2.72c-4.11-1.35-9.1-1.32-13.59-2.33
						c-0.96-0.22-5.18-1.06-5.44-1.16c-8.37-3.24-5.46-9.47-6.6-11.84c-0.6-1.26-3.35-1.61-3.49-1.75c-1-0.95-1.4-2.67-1.94-3.88
						c5.15,2.32,10.78,2.55,16.31,3.11c-0.21,1.5,0.59,2.85,0.78,4.27c0.19,1.4,0.27,7.9,1.36,8.54c4.2,0.66,8.38,0.88,12.62,1.16
						c13.27,0.9,30.65,0.19,43.88-1.55c12.78-1.69,40.18-9.06,52.42-13.59c6.53-2.42,20.84-8.6,18.45-16.7
						c-12.3,5.21-24.68,11.05-37.67,14.37c-3.58,0.91-9.89,2.68-12.43,1.55c-0.3,2.63-4.34-0.14-2.91-1.94
						c14.29-2.81,28.47-7.13,41.55-13.2c6.77-3.14,7.8-2.5,13.2-8.54c-0.19,4.95-0.19,4.95-0.39,9.9
						C403.86,391.78,404.97,391.78,406,393.01z"/>
					<path class="st12" d="M265.23,409.71c2.18-1.63,5.95,2.04,5.05,8.93C265.25,417.81,264.74,410.07,265.23,409.71z"/>
				</g>
			</g>
			<g>
				<path class="st32" d="M380.75,452.42c-1.63,11.81,3.01,11.35,13.2,11.46c10.06,46.03-33.73,44.8-66.01,50.68
					c-0.02-0.16-0.26-0.37-0.39-1.55c-0.6-5.69-0.86-11.41-1.55-17.09c4.96-0.9,38.35-7.25,40.19-8.15c2.06-1.01,0.4-1.6-0.19-2.72
					c5.92-1.67,6.99-5.4,10.1-9.9c0.46-3.45,2.61-9.26,3.11-12.04C379.81,459.65,379.6,452.52,380.75,452.42z"/>
				<path class="st33" d="M385.8,442.33c0,0.19,0,0.19,0,0.39c-0.09,0.35-2.92,2.14-4.27,5.82c-3.01-0.59-5.01,5.47-6.6,8.74
					c-1.84,12.03-5.64,14.96-11.65,23.88c-4.29-6.16-13.08-16.4-15.92-20.97c-1.05-1.69-2-3.16-2.72-5.05
					c3.48,2.16,4.79-4.27,7.57-6.21c4.61-1.22,12.96,1.41,12.23-2.72c5.19,2.9,8.7-3.64,5.82-6.99c3.09-1.51,3.83-5.68,6.6-7.18
					c-5.96-5.46-12.96-9.51-20.19-13.01c0.03-0.04-0.08-0.43,0.39-0.39C368.76,423.45,379.2,431.42,385.8,442.33z"/>
				<path class="st32" d="M381.53,448.54c-0.38,1.04-0.62,2.73-0.78,3.88c-1.15,0.1-0.94,7.23-1.55,10.68
					c-0.49,2.78-2.64,8.59-3.11,12.04c-3.1,4.5-4.18,8.23-10.1,9.9c-0.67-1.26-1.87-2.66-2.72-3.88
					c6.01-8.92,9.81-11.86,11.65-23.88C376.52,454.01,378.52,447.95,381.53,448.54z"/>
				<path class="st34" d="M370.27,439.22c-1.17-1.36-5.41-1.73-6.99,0.97c-0.86,1.47-0.47,5.1,1.16,6.02
					c0.72,4.13-7.62,1.5-12.23,2.72c-2.78,1.94-4.09,8.38-7.57,6.21c-6.66-17.61,7.17-29.21,12.04-36.11
					c7.23,3.5,14.24,7.55,20.19,13.01C374.1,433.54,373.36,437.71,370.27,439.22z"/>
			</g>
			<path class="st25" d="M370.27,439.22c2.88,3.35-0.64,9.89-5.82,6.99c-1.64-0.92-2.02-4.55-1.16-6.02
				C364.86,437.49,369.1,437.86,370.27,439.22z"/>
			<g>
				<path class="st33" d="M340.76,422.13c0.94,0.72,1.87,3.66,0.97,4.27c-3.87,2.62-36.3,3.71-42.72,3.49
					c-2.03-0.07-10.18-1.29-11.07-1.16c-0.19-1.94-0.19-1.94-0.39-3.88C305.34,425.25,323.19,425.27,340.76,422.13z"/>
				<path class="st32" d="M323.28,453.59c-0.07-0.08-1.64-0.66-1.94-0.78c-0.04-0.02,0.14-0.7-0.19-0.78
					c-2.17-0.51-13.93,0.38-18.25,0c-1.94-2.14-13.23-18.06-13.4-19.22c-0.14-1.01,0.41-1.6,1.16-0.97
					c10.79,2.25,40.33,0.75,52.23-1.94C337.18,438.43,331.44,447.15,323.28,453.59z"/>
			</g>
			<g>
				<path class="st26" d="M281.73,349.52c-2.68-2.72-6.21-3.4-9.71-1.94c-3.39,1.41-3.12,3.51-3.11,6.6
					c0.02,3.49,1.07,6.86,2.33,10.1c1.38,3.55,3.59,6.65,5.82,9.71c5.46,7.44,15.99,17.35,25.82,16.7c1.58-0.11,5.76-1.4,7.57-1.94
					c0.77,4.04,3.79,2.53,6.6,2.33c0,1.13-2.55,0.76-0.39,2.72c-17.09,2.07-41.35,2.16-58.25-0.78c0.14-1.24-5.27-1.23-6.02-1.94
					c-1.19-1.14,0.28-1.49-0.39-1.94c-3.28-2.23-3.99-1.25-8.35-5.44c0.76,0.36,8.23,6.01,8.54,4.08
					c-2.87-8.36-4.72-17.06-5.82-25.82c1.31-1.08,0.89,3.25,1.16,4.47c0.83,1.46,1.68-1.12,3.3,0.58c0.15,0.16,0.04,3.52,1.75,3.49
					c1.6,4.82,11.41,28.09,17.86,19.61c2.01-7.51-9.59-41.51-2.33-57.67c-0.65,4.46-0.57,10-0.78,14.56
					C271.85,339.28,281.75,338.41,281.73,349.52z"/>
				<g>
					<path class="st35" d="M340.76,248.17c3.8-0.19,12.33,3.67,11.65,7.96c-1.14,7.17-20.22,1.74-19.03-2.91
						C333.97,250.9,338.6,248.53,340.76,248.17z"/>
					<g>
						
							<linearGradient id="SVGID_00000134233603944005660660000009999593865702507169_" gradientUnits="userSpaceOnUse" x1="329.031" y1="256.3918" x2="296.563" y2="393.1626">
							<stop  offset="0.3646" style="stop-color:#B95B70"/>
							<stop  offset="1" style="stop-color:#513448"/>
						</linearGradient>
						<path style="fill:url(#SVGID_00000134233603944005660660000009999593865702507169_);" d="M355.9,257.87
							c11.6,13.07,18.11,21.1,22.91,38.64c-0.51,5.81,0.75,7,0.78,7.38c0.16,2.13,0.16,16.27,0,17.67
							c-0.01,0.05-0.74,0.27-0.78,0.58c-0.47,3.52-0.66,4.47-1.55,7.96c-0.09,0.34,0.09,0.83,0,1.16
							c-1.24,4.69-6.09,17.31-8.93,21.75c-6.8,3.43-14.19,26.86-21.75,31.07c-3.98,2.22-9.39,2.52-10.1,2.72
							c-1.16-3.86-0.82-8.01-0.78-12.04c0.02-1.72,0.38-3.32,0.39-5.05c0.03-6.68,0.27-13.22-0.78-19.8
							c-0.25-1.55-0.38-1.1-0.39-1.16c-0.75-4.1-5.16-20-6.99-22.72c-0.54-0.81-1.12-0.53-1.16-0.58c-1.96-2.45-4.03-3.83-4.66-4.66
							c-6.3-8.27-7.67-20.78-8.54-30.68c-0.14-1.56,0.41-3.21-0.58-4.66c-9.92,15.07-21.56,24.25-38.44,30.68
							c-1.7,1.46-2.4,3.49-3.3,5.44c-1.58,3.4-2.57,7.17-3.11,10.87c-7.26,16.16,4.34,50.16,2.33,57.67
							c-6.46,8.48-16.26-14.79-17.86-19.61c-6.73-20.28-5.71-41.47-1.94-62.13c13.34-34.8,42.42-64.47,82.71-55.14
							c-1.19,4.65,17.89,10.08,19.03,2.91c0.68-4.29-7.84-8.15-11.65-7.96C349.41,246.71,352.92,254.52,355.9,257.87z"/>
						<path class="st35" d="M298.62,275.35c0.5,0,3.99,0.18,4.08,0.58c-7.65,8.73-21.03,18.65-33.2,16.89
							c-5.98-0.86-3.79-2.48,1.16-6.99C278.76,278.47,287.75,275.44,298.62,275.35z"/>
						<path class="st37" d="M356.1,325.83c1.19,0.04-1.58,3.49,3.3,5.24c-5.42,0.69-4.29,4.33-4.85,4.47
							c-0.41,0.1-0.34-3.87-5.44-2.33c4.04-3.96,0.67-6.13,0.97-6.8C355.12,329.3,355.47,325.81,356.1,325.83z"/>
						<path class="st37" d="M352.6,291.27c0.65,3.01,1.41,3.04,4.08,4.08c-3.46,0.48-4.54,0.77-5.24,4.47
							c-0.49-4.46-3.58-2.66-4.08-3.3c-0.17-0.22,3.39-2.04,0.78-4.66C348.47,291.09,350.76,293.93,352.6,291.27z"/>
					</g>
				</g>
				<path class="st38" d="M272.02,347.58c0.19,3.11,0.19,3.11,0.39,6.21c-0.18,0-0.42,0.66-3.49,0.39
					C268.9,351.09,268.63,348.99,272.02,347.58z"/>
				<g>
					<path class="st10" d="M313.96,353.79c2.86-0.16,3.32,0.4,3.49,0.39c0.13,6.43,5.57,10.04,11.46,11.65
						c3.94,1.08,5.98,0.18,6.21,0.39c0.72,0.63-0.61,3.74,0.97,3.49c-0.01,1.73-0.37,3.33-0.39,5.05c-0.77,0.01-1.41,0.71-1.94,1.16
						c-2.85-2.04-5.08,2.94-14.56,1.55c-15.59-2.28-19.03-22.84-6.8-24.08C312.65,353.38,312.78,353.86,313.96,353.79z"/>
					<path class="st10" d="M313.58,290.1c-7.87,16.77-24.53,27.77-42.33,31.45c0.9-1.94,1.6-3.98,3.3-5.44
						c16.88-6.42,28.52-15.61,38.44-30.68C313.99,286.89,313.44,288.54,313.58,290.1z"/>
					<path class="st29" d="M336.1,369.71c-1.59,0.24-0.25-2.86-0.97-3.49c-0.23-0.21-2.27,0.69-6.21-0.39
						c-5.88-1.61-11.32-5.22-11.46-11.65c3.71-0.29,5.11-0.29,8.93-1.16c3.14-0.72,5.93-2.01,8.93-3.11
						C336.36,356.49,336.13,363.03,336.1,369.71z"/>
					<path class="st29" d="M335.71,374.76c-0.05,4.03-0.38,8.18,0.78,12.04c-6.44,1.78-12.65,3.78-19.42,4.27
						c-2.81,0.21-5.83,1.71-6.6-2.33c7.55-2.26,17.27-7.68,23.3-12.81C334.3,375.47,334.94,374.76,335.71,374.76z"/>
					<path class="st9" d="M322.12,320.78c0.63,0.83,2.7,2.21,4.66,4.66c-11.77-4.72-21.06,1.99-17.86-3.69
						C310.72,318.55,319.09,319.67,322.12,320.78z"/>
					<path class="st38" d="M332.99,348.74c0.88,1.33,1.38,1.58,1.94,0c0.01,0.06,0.14-0.39,0.39,1.16c-3,1.1-5.79,2.38-8.93,3.11
						c0.19-3.69,0.19-3.69,0.39-7.38C331.42,348.01,332.8,352.38,332.99,348.74z"/>
					<path class="st10" d="M277.07,373.98c-2.24-3.05-4.44-6.16-5.82-9.71c4.27,7.85,3.65-4.64,9.71-8.35c0-0.49,0-0.49,0-0.97
						c0-0.19,0-0.19,0-0.39c1.89,0.52,0.38,1.02,0.78,2.52c1.63,6.15,7.12,13.67,0.97,16.12
						C279.03,374.66,277.93,372.56,277.07,373.98z"/>
					<path class="st29" d="M280.96,354.95c0,0.49,0,0.49,0,0.97c-6.06,3.71-5.44,16.2-9.71,8.35c-1.26-3.23-2.31-6.6-2.33-10.1
						c3.07,0.27,3.32-0.39,3.49-0.39C275.1,353.79,278.24,354.74,280.96,354.95z"/>
					<path class="st39" d="M281.73,349.52c0,0.97-0.7,3.65-0.78,5.05c0,0.19,0,0.19,0,0.39c-2.72-0.21-5.85-1.16-8.54-1.16
						c-0.19-3.11-0.19-3.11-0.39-6.21C275.52,346.12,279.05,346.8,281.73,349.52z"/>
					<path class="st26" d="M332.99,348.74c-0.19,3.64-1.57-0.73-6.21-3.11c-4.81-2.46-7.34-2.05-12.43-1.16
						c-0.48,0.08-1.05-0.05-1.55,0c1.7-10.17,7.58-9.59,14.95-3.49C332.51,344.92,332.73,348.34,332.99,348.74z"/>
					<path class="st38" d="M314.35,344.47c-0.19,4.66-0.19,4.66-0.39,9.32c-1.19,0.07-1.32-0.41-1.55-0.39
						c-1.18-3.07-0.07-6.17,0.39-8.93C313.3,344.41,313.87,344.55,314.35,344.47z"/>
					<g>
						<path class="st40" d="M322.12,320.78c-3.03-1.11-11.4-2.23-13.2,0.97c-3.2,5.68,6.09-1.03,17.86,3.69
							c0.04,0.05,0.62-0.22,1.16,0.58c1.83,2.71,6.24,18.62,6.99,22.72c-0.56,1.58-1.07,1.33-1.94,0c-0.26-0.4-0.48-3.82-5.24-7.77
							c-7.37-6.1-13.25-6.68-14.95,3.49c-0.46,2.76-1.57,5.86-0.39,8.93c-12.24,1.24-8.79,21.8,6.8,24.08
							c9.48,1.38,11.71-3.59,14.56-1.55c-6.02,5.14-15.74,10.56-23.3,12.81c-1.81,0.54-5.99,1.84-7.57,1.94
							c-9.83,0.65-20.37-9.25-25.82-16.7c0.85-1.42,1.96,0.68,5.63-0.78c6.15-2.45,0.66-9.97-0.97-16.12c-0.4-1.5,1.12-2-0.78-2.52
							c0.08-1.39,0.78-4.08,0.78-5.05c0.02-11.11-9.89-10.23-14.37-2.52c0.2-4.57,0.13-10.1,0.78-14.56
							c0.54-3.7,1.53-7.47,3.11-10.87c17.8-3.68,34.46-14.69,42.33-31.45C314.45,300,315.82,312.51,322.12,320.78z"/>
						<path class="st9" d="M273,325.44c1.71-0.35,6.57,0.18,7.57,1.75c2.89,4.51-5.12,0.8-9.9,2.91
							C268.62,328.26,270.85,325.88,273,325.44z"/>
						<path class="st41" d="M292.8,373.2c4.5,0.85,6.97,1.99,11.65,0C304.49,377.82,293.89,378.18,292.8,373.2z"/>
						<path class="st42" d="M289.31,363.5c14.42,0.01,2.1,5.06-0.19,1.36C288.79,364.33,288.67,363.87,289.31,363.5z"/>
					</g>
					<path class="st39" d="M326.78,345.63c-0.19,3.69-0.19,3.69-0.39,7.38c-3.82,0.88-5.22,0.88-8.93,1.16
						c-0.18,0.01-0.64-0.55-3.49-0.39c0.19-4.66,0.19-4.66,0.39-9.32C319.43,343.58,321.97,343.17,326.78,345.63z"/>
				</g>
			</g>
			<g>
				<path class="st13" d="M321.34,452.81c0.3,0.12,1.87,0.7,1.94,0.78c2.4,2.57,1.67,18.43,1.55,22.91
					c-0.05,1.93,0.42,8.1-0.58,8.54c-6.09-0.47-18.86,0.63-23.11,0c1.24-2.26-1.13-4.04-1.16-4.27c-0.23-1.37-0.05-7.97,0-10.48
					c2.37,1.42,3.73,0.47,6.21,0.39c-2.46,9.56,8.14,11.89,11.65,6.02c4.14-6.93-2.97-15.03-9.32-9.9c-2.13-0.92-6.06-3.7-8.15-1.55
					c-0.95-1.27-2.72-4.11-3.11-5.44c-0.18-0.62-0.1-4.84-0.78-5.82c0.06-0.03-0.22-0.62,0.58-1.16
					C309.21,452.81,309.21,452.81,321.34,452.81z"/>
				<path class="st28" d="M308.53,466.79c-0.99,0.8-2.01,2.64-2.33,3.88c-2.49,0.08-3.84,1.03-6.21-0.39
					c0.01-0.64-1.18-3.44,0.39-5.05C302.47,463.09,306.4,465.87,308.53,466.79z"/>
				<path class="st43" d="M297.27,459.8c-1.27-1.88-3.85,0.12-4.27-0.58c-0.1-0.17,0.3-3.71,0.39-3.88
					c0.08-0.15,1.94-0.81,3.11-1.36C297.17,454.96,297.08,459.17,297.27,459.8z"/>
				<path class="st43" d="M301.15,485.04c-3.28-0.48-3.93-2.14-1.16-4.27C300.02,481,302.39,482.78,301.15,485.04z"/>
				<path class="st38" d="M306.2,470.67c0.32-1.25,1.34-3.08,2.33-3.88c6.35-5.13,13.46,2.97,9.32,9.9
					C314.34,482.56,303.74,480.23,306.2,470.67z"/>
			</g>
		</g>
	</g>
</g>
</svg>
