<?xml version="1.0" encoding="utf-8"?>
<!-- Generator: Adobe Illustrator 28.1.0, SVG Export Plug-In . SVG Version: 6.00 Build 0)  -->
<svg version="1.1" id="Layer_1" xmlns="http://www.w3.org/2000/svg" xmlns:xlink="http://www.w3.org/1999/xlink" x="0px" y="0px"
	 viewBox="0 0 1088 687.96" style="enable-background:new 0 0 1088 687.96;" xml:space="preserve">
<style type="text/css">
	.st0{fill:#3F3D56;}
	.st1{fill:#F2F2F2;}
	.st2{opacity:0.1;enable-background:new    ;}
	.st3{fill:#FF6584;}
	.st4{fill:#2F2E41;}
	.st5{fill:#6C63FF;}
	.st6{fill:#A8A8A8;}
	.st7{opacity:0.2;enable-background:new    ;}
	.st8{display:none;}
	.st9{display:inline;opacity:0.136;fill:#D8D8D8;enable-background:new    ;}
	.st10{display:none;fill-rule:evenodd;clip-rule:evenodd;fill:#44D860;}
</style>
<g id="Group_12" transform="translate(-57 -56)">
	<g id="Group_11" transform="translate(57 56)">
		<path id="Path_83" class="st0" d="M961.81,454.44c-5.27,45.15-16.22,81.4-31.25,110.31c-20,38.52-54.21,54.04-84.77,70.28
			c-8.83,4.68-18.01,8.68-27.46,11.94c-55.61,19.3-117.85,14.18-166.74,3.99c-34.29-7.15-69.1-11.55-104.09-13.16
			c-9.98-0.45-19.97-0.67-29.97-0.67c-15.42,0.02-293.07,5.29-360.67-131.57c-16.69-33.76-28.13-75-32.24-125.27
			c-11.63-142.12,52.29-235.46,134.74-296.47C415.33-31.59,629.12-26.75,782.79,91.7C885.15,170.6,980.99,290.01,961.81,454.44z"/>
		<path id="Path_84" class="st1" d="M930.56,564.75c-20,38.52-47.21,64.04-77.77,80.28c-8.83,4.68-18.01,8.68-27.46,11.94
			c-55.61,19.3-117.85,14.18-166.74,3.99c-34.29-7.15-69.1-11.55-104.09-13.16c-9.98-0.45-19.97-0.67-29.97-0.67
			c-15.42,0.02-30.84,0.59-46.25,1.72c-100.17,7.36-253.82-6.43-321.42-143.29L326,177.96l62.95,161.62l20.09,51.59l55.37-75.98
			L493,275.96l130.2,149.27l36.8-81.27l254.78,207.92l14.21,11.59L930.56,564.75z"/>
		<path id="Path_85" class="st2" d="M302,282.96l26-57l36,83l-31-60L302,282.96z"/>
		<path id="Path_86" class="st2" d="M554.5,647.8c-9.98-0.45-19.97-0.67-29.97-0.67L409.04,391.17L554.5,647.8z"/>
		<path id="Path_87" class="st2" d="M464.41,315.19L493,292.96l130,150l-132-128L464.41,315.19z"/>
		<path id="Path_88" class="st2" d="M852.79,645.03c-8.83,4.68-18.01,8.68-27.46,11.94L623.2,425.23L852.79,645.03z"/>
		<circle id="Ellipse_11" class="st1" cx="482" cy="101.96" r="3"/>
		<circle id="Ellipse_12" class="st1" cx="399" cy="204.96" r="3"/>
		<circle id="Ellipse_13" class="st1" cx="602" cy="222.96" r="2"/>
		<circle id="Ellipse_14" class="st1" cx="182" cy="267.96" r="2"/>
		<circle id="Ellipse_15" class="st1" cx="614" cy="98.96" r="2"/>
		<circle id="Ellipse_16" class="st1" cx="738" cy="194.96" r="2"/>
		<circle id="Ellipse_17" class="st1" cx="860" cy="346.96" r="2"/>
		<path id="Path_89" class="st1" d="M306,121.22h-2.76v-2.76h-1.48v2.76H299v1.48h2.76v2.76h1.48v-2.76H306V121.22z"/>
		<path id="Path_90" class="st1" d="M848,424.22h-2.76v-2.76h-1.48v2.76H841v1.48h2.76v2.76h1.48v-2.76H848V424.22z"/>
		<path id="Path_91" class="st0" d="M1088,613.96c0,16.57-243.56,74-544,74s-544-57.43-544-74s243.56,14,544,14
			S1088,597.39,1088,613.96z"/>
		<path id="Path_92" class="st2" d="M1088,613.96c0,16.57-243.56,74-544,74s-544-57.43-544-74s243.56,14,544,14
			S1088,597.39,1088,613.96z"/>
		<ellipse id="Ellipse_18" class="st0" cx="544" cy="613.96" rx="544" ry="30"/>
		<path id="Path_93" class="st3" d="M568,571.96c0,33.14-14.78,24-33,24s-33,9.14-33-24s33-96,33-96S568,538.83,568,571.96z"/>
		<path id="Path_94" class="st2" d="M550,584.64c0,15.06-6.72,10.91-15,10.91s-15,4.15-15-10.91S535,541,535,541
			S550,569.58,550,584.64z"/>
		<path id="Rectangle_97" class="st4" d="M498,604.96h74c4.97,0,9,4.03,9,9l0,0c0,4.97-4.03,9-9,9h-74c-4.97,0-9-4.03-9-9l0,0
			C489,608.99,493.03,604.96,498,604.96z"/>
		<path id="Rectangle_98" class="st4" d="M498,586.96h74c4.97,0,9,4.03,9,9l0,0c0,4.97-4.03,9-9,9h-74c-4.97,0-9-4.03-9-9l0,0
			C489,590.99,493.03,586.96,498,586.96z"/>
		<path id="Path_95" class="st0" d="M137,490.53c0,55.34,34.72,100.13,77.63,100.13"/>
		<path id="Path_96" class="st5" d="M214.63,590.65c0-55.97,38.74-101.25,86.63-101.25"/>
		<path id="Path_97" class="st5" d="M165.12,495.55c0,52.57,22.14,95.11,49.5,95.11"/>
		<path id="Path_98" class="st0" d="M214.63,590.65c0-71.51,44.78-129.38,100.13-129.38"/>
		<path id="Path_99" class="st6" d="M198.3,591.36c0,0,11.01-0.34,14.33-2.7s16.93-5.18,17.76-1.4s16.54,18.84,4.11,18.95
			s-28.88-1.94-32.19-3.95S198.3,591.36,198.3,591.36z"/>
		<path id="Path_100" class="st7" d="M234.72,604.89c-12.43,0.1-28.88-1.94-32.19-3.95c-2.52-1.54-3.53-7.05-3.86-9.59l-0.37,0.01
			c0,0,0.7,8.88,4.01,10.9s19.76,4.05,32.19,3.95c3.59-0.03,4.83-1.3,4.76-3.2C238.76,604.16,237.39,604.87,234.72,604.89z"/>
		<path id="Path_101" class="st0" d="M721.43,527.06c0,38.03,23.86,68.8,53.34,68.8"/>
		<path id="Path_102" class="st5" d="M774.77,595.86c0-38.46,26.62-69.58,59.53-69.58"/>
		<path id="Path_103" class="st5" d="M740.76,530.51c0,36.12,15.21,65.35,34.01,65.35"/>
		<path id="Path_104" class="st0" d="M774.77,595.86c0-49.14,30.77-88.9,68.8-88.9"/>
		<path id="Path_105" class="st6" d="M763.55,596.35c0,0,7.57-0.23,9.84-1.86s11.64-3.56,12.2-0.96s11.37,12.95,2.83,13.02
			s-19.84-1.33-22.12-2.72S763.55,596.35,763.55,596.35z"/>
		<path id="Path_106" class="st7" d="M788.57,605.65c-8.54,0.07-19.84-1.33-22.12-2.72c-1.73-1.06-2.42-4.84-2.65-6.59l-0.25,0.01
			c0,0,0.48,6.1,2.76,7.49s13.58,2.78,22.12,2.72c2.47-0.02,3.32-0.9,3.27-2.2C791.35,605.14,790.41,605.63,788.57,605.65z"/>
		<path id="Path_107" class="st6" d="M893.81,618.7c0,0,11.36-1.73,14.5-4.59s16.89-7.49,18.22-3.67s19.49,17.45,6.63,19.11
			s-30.15,1.61-33.84-0.07S893.81,618.7,893.81,618.7z"/>
		<path id="Path_108" class="st7" d="M933.23,628.15c-12.86,1.66-30.15,1.61-33.84-0.07c-2.8-1.28-4.53-6.86-5.2-9.45l-0.38,0.06
			c0,0,1.83,9.11,5.52,10.78s20.97,1.72,33.84,0.07c3.71-0.48,4.84-1.96,4.53-3.91C937.32,626.89,935.99,627.8,933.23,628.15z"/>
		<path id="Path_109" class="st6" d="M614.26,617.88c0,0,9.59-1.46,12.24-3.88s14.26-6.32,15.37-3.09s16.45,14.72,5.6,16.12
			s-25.45,1.36-28.55-0.05S614.26,617.88,614.26,617.88z"/>
		<path id="Path_110" class="st7" d="M647.52,625.86c-10.85,1.4-25.45,1.36-28.55-0.05c-2.37-1.08-3.83-5.79-4.39-7.98l-0.32,0.05
			c0,0,1.55,7.69,4.66,9.1s17.7,1.46,28.55,0.05c3.13-0.4,4.08-1.65,3.82-3.3C650.98,624.79,649.86,625.56,647.52,625.86z"/>
		<path id="Path_111" class="st6" d="M122.39,613.09c0,0,7.46-1.14,9.53-3.02s11.1-4.92,11.97-2.41s12.81,11.46,4.36,12.55
			s-19.81,1.06-22.23-0.04S122.39,613.09,122.39,613.09z"/>
		<path id="Path_112" class="st7" d="M148.29,619.3c-8.45,1.09-19.81,1.06-22.23-0.04c-1.84-0.84-2.98-4.51-3.42-6.21l-0.25,0.04
			c0,0,1.2,5.98,3.62,7.09s13.78,1.13,22.23,0.04c2.44-0.32,3.18-1.28,2.98-2.57C150.97,618.47,150.1,619.07,148.29,619.3z"/>
		<path id="Path_113" class="st2" d="M383.7,601.32c0,30.22-42.12,20.87-93.7,20.87s-93.07,9.35-93.07-20.87
			s42.12-36.79,93.69-36.79S383.7,571.1,383.7,601.32z"/>
		<path id="Path_114" class="st0" d="M383.7,593.88c0,30.22-42.12,20.87-93.7,20.87s-93.07,9.35-93.07-20.87s42.11-36.8,93.69-36.8
			S383.7,563.66,383.7,593.88z"/>
	</g>
	<g id="docusaurus_keytar" transform="translate(312.271 493.733)">
		<g id="Group_8" transform="matrix(0.966, -0.259, 0.259, 0.966, 109.327, 91.085)" class="st8">
			<path id="Rectangle_72" class="st9" d="M11.65,1.57h3.54c0.4,0,0.72,0.32,0.72,0.72v0.13c0,0.4-0.32,0.72-0.72,0.72h-3.54
				c-0.4,0-0.72-0.32-0.72-0.72V2.29C10.92,1.89,11.25,1.57,11.65,1.57z"/>
			<path id="Rectangle_73" class="st9" d="M16.9,1.57h3.54c0.4,0,0.72,0.32,0.72,0.72v0.13c0,0.4-0.32,0.72-0.72,0.72H16.9
				c-0.4,0-0.72-0.32-0.72-0.72V2.29C16.17,1.89,16.5,1.57,16.9,1.57z"/>
			<path id="Rectangle_76" class="st9" d="M33.95,1.57h3.54c0.4,0,0.72,0.32,0.72,0.72v0.13c0,0.4-0.32,0.72-0.72,0.72h-3.54
				c-0.4,0-0.72-0.32-0.72-0.72V2.29C33.23,1.89,33.56,1.57,33.95,1.57z"/>
			<path id="Rectangle_77" class="st9" d="M39.2,1.57h3.54c0.4,0,0.72,0.32,0.72,0.72v0.13c0,0.4-0.32,0.72-0.72,0.72H39.2
				c-0.4,0-0.72-0.32-0.72-0.72V2.29C38.48,1.89,38.8,1.57,39.2,1.57z"/>
			<path id="Rectangle_78" class="st9" d="M44.45,1.57h3.54c0.4,0,0.72,0.32,0.72,0.72v0.13c0,0.4-0.32,0.72-0.72,0.72h-3.54
				c-0.4,0-0.72-0.32-0.72-0.72V2.29C43.73,1.89,44.05,1.57,44.45,1.57z"/>
			<path id="Rectangle_79" class="st9" d="M49.7,1.57h3.54c0.4,0,0.72,0.32,0.72,0.72v0.13c0,0.4-0.32,0.72-0.72,0.72l-3.54,0
				c-0.4,0-0.72-0.32-0.72-0.72V2.29C48.98,1.89,49.3,1.57,49.7,1.57z"/>
			<path id="Rectangle_80" class="st9" d="M56.26,1.57h3.54c0.4,0,0.72,0.32,0.72,0.72v0.13c0,0.4-0.32,0.72-0.72,0.72h-3.54
				c-0.4,0-0.72-0.32-0.72-0.72V2.29C55.54,1.89,55.86,1.57,56.26,1.57z"/>
			<path id="Rectangle_81" class="st9" d="M61.51,1.57h3.54c0.4,0,0.72,0.32,0.72,0.72v0.13c0,0.4-0.32,0.72-0.72,0.72h-3.54
				c-0.4,0-0.72-0.32-0.72-0.72V2.29C60.79,1.89,61.11,1.57,61.51,1.57z"/>
			<path id="Rectangle_82" class="st9" d="M66.76,1.57h3.54c0.4,0,0.72,0.32,0.72,0.72v0.13c0,0.4-0.32,0.72-0.72,0.72h-3.54
				c-0.4,0-0.72-0.32-0.72-0.72V2.29C66.04,1.89,66.36,1.57,66.76,1.57z"/>
			<path id="Rectangle_83" class="st9" d="M73.32,1.57h3.54c0.4,0,0.72,0.32,0.72,0.72v0.13c0,0.4-0.32,0.72-0.72,0.72h-3.54
				c-0.4,0-0.72-0.32-0.72-0.72V2.29C72.6,1.89,72.92,1.57,73.32,1.57z"/>
			<path id="Rectangle_84" class="st9" d="M78.57,1.57h3.54c0.4,0,0.72,0.32,0.72,0.72v0.13c0,0.4-0.32,0.72-0.72,0.72h-3.54
				c-0.4,0-0.72-0.32-0.72-0.72V2.29C77.85,1.89,78.17,1.57,78.57,1.57z"/>
			<path id="Rectangle_85" class="st9" d="M83.82,1.57h3.54c0.4,0,0.72,0.32,0.72,0.72v0.13c0,0.4-0.32,0.72-0.72,0.72h-3.54
				c-0.4,0-0.72-0.32-0.72-0.72V2.29C83.1,1.89,83.42,1.57,83.82,1.57z"/>
		</g>
		<path id="Path_61_00000043423385710425989240000007061593816169818789_" class="st10" d="M142.06,107.39"/>
	</g>
</g>
</svg>
