<?xml version="1.0" encoding="utf-8"?>
<!-- Generator: Adobe Illustrator 28.1.0, SVG Export Plug-In . SVG Version: 6.00 Build 0)  -->
<svg version="1.1" id="Layer_1" xmlns="http://www.w3.org/2000/svg" xmlns:xlink="http://www.w3.org/1999/xlink" x="0px" y="0px"
	 viewBox="0 0 612 792" style="enable-background:new 0 0 612 792;" xml:space="preserve">
<style type="text/css">
	.st0{display:none;}
	.st1{display:inline;fill:#A395AC;}
	.st2{display:inline;fill:#EBA7AC;}
	.st3{display:inline;fill:#C9809B;}
	.st4{display:inline;fill:#E4DEEA;}
	.st5{display:inline;fill:#89859D;}
	.st6{display:inline;fill:#707695;}
	.st7{fill:#E4DEEA;}
	.st8{fill:#F5EDF0;}
	.st9{fill:#D7C8D2;}
	.st10{fill:#203869;}
	.st11{fill:#C9809B;}
	.st12{fill:#B5BFE0;}
	.st13{fill:url(#SVGID_1_);}
	.st14{fill:#CADED9;}
	.st15{fill:#2677AC;}
	.st16{fill:#8CC1CB;}
	.st17{fill:#A6CED1;}
	.st18{fill:url(#SVGID_00000026845936758722674590000015645101286170997177_);}
	.st19{fill:#6A9EC0;}
	.st20{fill:#6EAFC1;}
	.st21{fill:url(#SVGID_00000075847967281363114180000003098461522645714858_);}
	.st22{fill:#51B8BD;}
	.st23{fill:url(#SVGID_00000088853970699497944600000004604931343145029283_);}
	.st24{fill:#684B89;}
	.st25{fill:#7C4A7F;}
	.st26{fill:#D77E8C;}
	.st27{fill:#B66783;}
	.st28{fill:#402E65;}
	.st29{fill:#9D5F8A;}
	.st30{fill:#9492BB;}
	.st31{fill:#563975;}
	.st32{fill:#8B6498;}
	.st33{fill:#924D76;}
	.st34{fill:#755B96;}
	.st35{fill:#222959;}
	.st36{fill:#474788;}
	.st37{fill:#816BA8;}
	.st38{fill:#A577A3;}
	.st39{fill:#C5C2D0;}
	.st40{fill:#9CB2D4;}
</style>
<g>
	<g id="Background_00000179615001437357652670000015630056893710565795_" class="st0">
		<path class="st1" d="M504.68,197.31c0,198.83,0,198.83,0,397.67c-198.83,0-198.83,0-397.67,0c0-198.83,0-198.83,0-397.67
			C305.85,197.31,305.85,197.31,504.68,197.31z"/>
		<path class="st2" d="M434.78,424.88c-0.02-12.54,0.77-85.84,0-90.29c-1.96-11.4-21.35-7.56-32.23-7.57
			c6.72-10.09,21.04-35.72-3.3-32.23c-9.95,1.43-22.24,23.83-37.67,16.31c-9.65-4.71,7.25-21.36,4.47-37.86
			c-1.94-11.53-13.68-0.87-23.11-1.75c-8.62-0.8-27.98-14.67-53.01-10.1c0-3.53,2.96-1.14,1.17-7.57c-1.08-1.49-5.13,1.28-5.05-1.75
			c23.26-4.2,65.91-6.69,85.24,8.93c14.02,11.33,12.43,26.03,27.96,33.01c26.89-14.62,46.11,21.21,51.07,42.52
			c6.09,26.15-0.23,52.03-9.71,76.5C439.33,416.34,436.82,422.76,434.78,424.88z"/>
		<path class="st1" d="M156.34,534c1.15,0.61,3.01,1.36,4.27,1.55c0,0.39,0,0.39,0,0.78c-1.19-0.15-2.21,0.76-2.33,0.78
			c-1.77,0.29-2.03-0.4-2.14-0.39c-2.63,0.4-25.82,5.18-18.25,9.71c3.69,2.21,25.6,6.33,31.07,6.99
			c80.88,5.64,162.09,2.04,243.1,1.94c11.58-1.74,26.63-0.97,37.67-2.72c4.29-0.68,18.32-4.56,21.36-6.99
			c8.26-6.6-9.75-7.77-16.5-8.93c-0.9-0.15-1.91-0.39-2.72-0.78c-0.05-0.02-0.75-0.6-0.78-0.78c1.13-0.28,2.81-1.01,3.88-1.55
			c-0.08,0.56-0.01,1.3,0.58,1.55c1.49,0.64,25.1,2.89,31.26,7.96c0.63,2.57-9.71,6.6-11.07,8.74c-7.57,2.33-7.57,2.33-15.15,4.66
			c-17.41,2.56-34.89,3.72-52.43,5.05c-71.19,1.76-142.38,2.28-213.59,0.78c-10.82-1.89-22.01-2.26-33.01-3.11
			c-11.36-2.77-30.42-3.99-40.39-9.71c-2.03-1.17-4.23-2.54-3.3-5.24c0.45-1.3,13.59-5.16,15.73-5.63c5-1.1,21.56-2.51,22.52-3.11
			C156.53,535.32,156.27,534.45,156.34,534z"/>
		<path class="st3" d="M265.46,283.91c-6.72,0.64-17.2-2.56-20.58,5.24c-1.75,4.03-2.03,28.22,0.39,31.46
			c0.78,1.04,1.49,1.4,2.72,1.75c-0.08,1.36-0.69,3.45-0.78,4.66c-17.35,0.93-41.79-1.07-57.86-0.39c1.96-7.15,4.2-14.45,8.16-20.78
			c8.17-13.08,17.09-15.35,22.33-19.22c2.86-2.12,7.79-8.4,10.68-9.32c39.01-5.47,30.93,4.38,32.43,5.44
			c3.07,2.16,5.56-3.54,10.29-7.77C272.13,276.91,267.09,283.52,265.46,283.91z"/>
		<path class="st2" d="M286.04,252.07c-0.08,3.03,3.97,0.26,5.05,1.75c1.79,6.44-1.16,4.04-1.17,7.57
			c-0.97,0.18-8.76,2.41-9.13,2.72c-2.29,1.9,1.5,3.85-1.36,6.21c-2.01,1.2-3.31,2.42-5.05,3.88c-0.31,0.26-0.86,0.51-1.17,0.78
			c-4.73,4.23-7.22,9.93-10.29,7.77c-1.5-1.05,6.59-10.91-32.43-5.44C245.86,263.41,265.89,255.7,286.04,252.07z"/>
		<path class="st4" d="M449.34,261.77c1.74,2.44-0.94,8.66,2.14,10.29c-2.41,1.98-1.17,3.76-1.75,6.41
			c-1.18-2.08,0.16-4.84-2.14-6.41C450.55,270.52,448.43,265.28,449.34,261.77z"/>
		<path class="st3" d="M402.55,327.02c-28.15,0-28.15,0-56.31,0c-0.02-0.29-1.69-0.75-0.39-5.44c1.35-0.49,2.75-1.29,3.5-2.52
			c1.76-2.91,1.68-25.98,0.39-29.51c-3.02-8.27-14.95-5.6-21.75-6.02c-4.52-6.27-9.15-12.4-16.5-15.53
			c-11.23-4.79-21.68-3.84-32.04,2.33c2.86-2.36-0.93-4.32,1.36-6.21c0.37-0.3,8.16-2.54,9.13-2.72c25.03-4.58,44.39,9.3,53.01,10.1
			c9.43,0.87,21.16-9.78,23.11,1.75c2.78,16.5-14.12,33.16-4.47,37.86c15.43,7.52,27.72-14.88,37.67-16.31
			C423.59,291.3,409.27,316.93,402.55,327.02z"/>
		<path class="st5" d="M158.28,537.11c-2.33,2.43-2.33,2.43-4.66,4.85c-0.11,2.03,18.15,5.52,20.78,6.02
			c36.84,1.95,73.77,2.6,110.68,2.72c4.29,0.01,8.91-0.78,13.2-0.78c49.71,0.01,99.57,1.01,149.12-3.11c2.63-1.33,8.2-2.45,10.1-3.5
			c6.28-3.46-2.26-3.67-2.91-6.6c6.76,1.16,24.77,2.33,16.5,8.93c-3.04,2.43-17.07,6.31-21.36,6.99
			c-11.04,1.75-26.09,0.97-37.67,2.72c-81.01,0.09-162.22,3.7-243.1-1.94c-5.47-0.67-27.38-4.78-31.07-6.99
			c-7.57-4.53,15.62-9.3,18.25-9.71C156.25,536.71,156.51,537.4,158.28,537.11z"/>
		<path class="st6" d="M451.09,535.17c0.03,0.18,0.73,0.75,0.78,0.78c3.95,10.97-27.14,7.84-35.15,10.1
			c-61.32,0.32-122.76,2.32-184.08,1.17c-12.78-0.24-59.99-1.31-69.13-4.66c-5.55-2.03-2.91-3-2.91-6.21c0-0.39,0-0.39,0-0.78
			c0.83,0.13,2.73,0.33,3.5,0c-0.54,2.86,3.06,2.06,5.24,3.5c77.43,6.45,155.38,3.73,233.01,2.72c11.78-2.62,39.16,0.52,44.08-5.83
			C446.96,535.3,449.35,535.6,451.09,535.17z"/>
		<path class="st5" d="M454.59,536.72c0.65,2.93,9.2,3.14,2.91,6.6c-1.9,1.05-7.47,2.17-10.1,3.5
			c-49.56,4.12-99.42,3.12-149.12,3.11c-4.29,0-8.91,0.79-13.2,0.78c-36.9-0.12-73.84-0.77-110.68-2.72
			c-2.63-0.5-20.88-3.99-20.78-6.02c2.33-2.43,2.33-2.43,4.66-4.85c0.12-0.02,1.14-0.93,2.33-0.78c0,3.21-2.64,4.18,2.91,6.21
			c9.14,3.35,56.34,4.42,69.13,4.66c61.32,1.15,122.76-0.85,184.08-1.17c8-2.26,39.1,0.88,35.15-10.1
			C452.67,536.34,453.69,536.57,454.59,536.72z"/>
		<path class="st6" d="M446.43,535.95c-4.91,6.35-32.3,3.2-44.08,5.83c-77.63,1.01-155.58,3.73-233.01-2.72
			c-2.18-1.43-5.78-0.63-5.24-3.5C305.27,535.75,305.27,535.75,446.43,535.95z"/>
	</g>
	<g>
		<path class="st7" d="M158.86,276.92c0.49,4.95,0.49,4.95,0.97,9.9c9.96,2.71,1.53,0.46,0,2.33c-1.36,1.66,0.07,18.16-1.55,0.78
			c-8.2-3.5-4.33-0.04,0.39-3.88C158.76,281.48,158.76,281.48,158.86,276.92z"/>
		<path class="st8" d="M402.74,230.71c0.41,13.02,3.86,11.58,3.69,12.23c-0.09,0.35-2.48-1-3.3,5.63c-0.7-6.01-2.92-3.84-2.52-7.18
			C403.7,241.76,402.34,234.4,402.74,230.71z"/>
		<g>
			<path class="st9" d="M156.14,346.05c0.68,0-0.83,7.61,1.75,7.96c-3,1.74-1.07,12.17-2.33,2.33
				C152.06,354.34,155.9,355.14,156.14,346.05z"/>
			<path class="st9" d="M151.87,355.75c3.79-0.04-1.59,1.94-8.74,0.97C146.01,357.02,149.1,355.78,151.87,355.75z"/>
		</g>
		<g>
			<path class="st10" d="M461.58,526.63c-0.73,2.77-4.08,5.7-6.6,6.99c-1.07,0.55-2.75,1.28-3.88,1.55
				c-1.74,0.43-4.13,0.13-4.66,0.78c-141.16-0.19-141.16-0.19-282.33-0.39c-0.77,0.33-2.66,0.13-3.5,0
				c-1.26-0.2-3.12-0.94-4.27-1.55c-2.74-1.46-4.66-4.07-6.21-6.6c49.7-0.71,99.42-0.39,149.12-0.39c12.04,0,24.08,0.01,36.12,0
				c13.07-0.02,26.15,0.03,39.22,0c22.5-0.05,45.08,0.42,67.57,0C448.63,526.89,455.09,526.39,461.58,526.63z"/>
			<path class="st11" d="M177.7,523.13c29.11-0.4,58.27,0.05,87.38,0c8.93-0.02,17.86,0.01,26.8,0c1.56,0,3.37,0.39,5.05,0.39
				c1.17,1.75,1.17,1.75,2.33,3.5c-49.71,0-99.42-0.32-149.12,0.39c-0.12-0.2-2.35-0.52-0.97-3.88
				C158.67,523.84,168.19,523.26,177.7,523.13z"/>
			<path class="st9" d="M461.58,526.63c-6.48-0.23-12.94,0.27-19.42,0.39c-3.98-0.19-3.98-0.19-7.96-0.39
				c-0.83-2.45,0.52-2.67,0.58-3.5c3.65,0.01,26.13-0.55,27.38,0C463.18,523.58,463.11,526.78,461.58,526.63z"/>
			<path class="st12" d="M434.78,523.13c-0.06,0.82-1.41,1.05-0.58,3.5c3.98,0.19,3.98,0.19,7.96,0.39
				c-22.49,0.42-45.07-0.05-67.57,0c0-1.75,0-1.75,0-3.5C394.64,523.54,414.72,523.06,434.78,523.13z"/>
			<path class="st11" d="M337.31,523.13c12.43,0.01,24.87,0.38,37.28,0.39c0,1.75,0,1.75,0,3.5c-13.07,0.03-26.15-0.02-39.22,0
				c0.39-1.75,0.39-1.75,0.78-3.5C336.2,523.52,335.8,523.13,337.31,523.13z"/>
			<path class="st7" d="M302.74,523.13c3.62,0,7.25,0,10.87,0c7.51,0,15.04,0.38,22.52,0.39c-0.39,1.75-0.39,1.75-0.78,3.5
				c-12.04,0.01-24.08,0-36.12,0c-1.17-1.75-1.17-1.75-2.33-3.5C298.71,523.52,300.94,523.13,302.74,523.13z"/>
		</g>
		<g>
			<path class="st10" d="M434.78,424.88c0.04,20.07,0.98,85.54,0,98.25c-20.06-0.07-40.14,0.41-60.19,0.39
				c-12.41-0.01-24.86-0.38-37.28-0.39c3.12-3.74,5.8-8.68,6.21-13.59c6.21,0,6.21,0,12.43,0c13.07-0.05,26.15,0.06,39.22,0
				c10.33-0.05,20.77,0.52,31.07-0.58c0.03-15.86-0.04-31.72,0-47.57c0.02-6.08-0.01-12.17,0-18.25c0.01-6.99,0.01-13.98,0-20.97
				c0-4.27,0.01-8.54,0-12.82c-0.04-23.88,0.03-47.77,0-71.65c-11.38-0.81-22.81,0.24-34.17,0.19c-15.26-0.06-30.55-0.76-45.82-0.39
				c-0.06-3.3,0.26-7.44,0-10.49c28.16,0,28.16,0,56.31,0c10.89,0.01,30.27-3.83,32.23,7.57
				C435.55,339.04,434.76,412.34,434.78,424.88z"/>
			<path class="st10" d="M189.35,326.63c16.08-0.68,40.51,1.32,57.86,0.39c-0.25,3.47-0.35,7.39-0.39,10.87
				c-10.61,0.04-21.23-0.06-31.84,0c-9.71,0.05-19.42-0.2-29.13,0.19c-0.03,15.47,0.04,30.94,0,46.41
				c-0.06,20.98,0.34,41.94,0.39,62.91c0.04,20.68-1.33,41.46,0.19,62.14c35.63,0,35.63,0,71.26,0c0.8,5.51,3.31,9.89,7.38,13.59
				c-29.11,0.05-58.27-0.4-87.38,0c0.56-26.34-1.99-176.75-0.39-187.38C178.28,329.34,183.57,326.87,189.35,326.63z"/>
			<linearGradient id="SVGID_1_" gradientUnits="userSpaceOnUse" x1="372.6422" y1="354.7078" x2="412.9454" y2="419.2774">
				<stop  offset="0" style="stop-color:#598EBB"/>
				<stop  offset="1" style="stop-color:#57B4C0"/>
			</linearGradient>
			<path class="st13" d="M426.24,409.35c-16.48,17.22-35.38,32.95-58.25,40.78c0.59-7.03,1.35-14.33,2.72-21.16
				c0-0.97,0-0.97,0-1.94c-0.24-0.78-1.16-1.27-1.17-1.36c-0.01-0.13,0.01-0.26,0-0.39c-0.79-10.66-2.43-21.79-7.77-31.26
				c-0.58-3.59-0.58-3.59-1.17-7.18c5.5-4.8,27.53-39.42,31.46-48.93c11.37,0.05,22.8-1,34.17-0.19
				C426.27,361.58,426.2,385.46,426.24,409.35z"/>
			<path class="st14" d="M426.24,422.16c0.01,6.99,0.01,13.98,0,20.97c-9.67,11.12-25.06,12.42-35.92,21.75
				c-10.49,9.01-20.49,32.02-34.37,44.66c-6.21,0-6.21,0-12.43,0c0.08-0.95-0.29-15.97-0.39-19.03c-0.31-9.92-1.46-22.34-2.72-32.23
				c2.67,2.26,7.61-0.16,9.71,2.33c0.44,8,15.52,1.3,17.86-9.32c-0.02,0.84,0.01,1.36-0.39,2.14c1.21,1.87,19.98-6.53,22.72-7.96
				C403.03,438.82,413.24,428.05,426.24,422.16z"/>
			<path class="st14" d="M426.24,461.38c-12.94,13.94-20.76,32.14-31.07,48.15c-13.07,0.06-26.15-0.05-39.22,0
				c13.87-12.64,23.88-35.65,34.37-44.66c10.86-9.33,26.25-10.63,35.92-21.75C426.23,449.22,426.25,455.3,426.24,461.38z"/>
			<path class="st15" d="M392.06,337.89c-3.92,9.51-25.96,44.13-31.46,48.93c-0.07,0.06-0.31-0.06-0.39,0
				c0.26-1.02-0.18-1.81-0.39-2.72c-1.08-4.79-9.86-18.28-13.2-22.52c-0.69-8.02-0.25-16.05-0.39-24.08
				C361.51,337.13,376.8,337.83,392.06,337.89z"/>
			<path class="st16" d="M426.24,461.38c-0.04,15.86,0.03,31.72,0,47.57c-10.3,1.1-20.74,0.53-31.07,0.58
				C405.47,493.53,413.29,475.32,426.24,461.38z"/>
			<path class="st17" d="M426.24,422.16c-13,5.89-23.21,16.66-35.92,23.3c-2.73,1.43-21.51,9.83-22.72,7.96
				c0.4-0.77,0.37-1.3,0.39-2.14c0.01-0.39-0.03-0.78,0-1.17c22.87-7.83,41.77-23.55,58.25-40.78
				C426.24,413.62,426.23,417.89,426.24,422.16z"/>
			
				<linearGradient id="SVGID_00000088832651845774451650000011728665502437530274_" gradientUnits="userSpaceOnUse" x1="219.123" y1="339.3261" x2="211.3406" y2="442.7218">
				<stop  offset="0" style="stop-color:#88B0C7"/>
				<stop  offset="1" style="stop-color:#CFD3D5"/>
			</linearGradient>
			<path style="fill:url(#SVGID_00000088832651845774451650000011728665502437530274_);" d="M246.82,337.89
				c-0.09,8.23,0.87,16.6,0.39,24.85c0.16,1.22-1.79,2.87-3.11,4.66c-3.24,4.4-7.76,7.97-10.49,12.82
				c-1.33,2.21-0.49,4.72-0.78,5.83c-3.37,13.14-7.52,26.28-6.99,40c0.3,6.19,1.64,8.55,1.94,10.87
				c-14.05,2.57-28.12,5.55-41.55,10.49c-0.04-20.97-0.45-41.94-0.39-62.91c10.31-15.14,20.04-30.7,29.13-46.6
				C225.59,337.83,236.21,337.93,246.82,337.89z"/>
			<path class="st19" d="M214.98,337.89c-9.09,15.9-18.82,31.46-29.13,46.6c0.04-15.47-0.03-30.94,0-46.41
				C195.56,337.69,205.27,337.94,214.98,337.89z"/>
			<path class="st17" d="M350.12,460.61c-2.1-2.49-7.03-0.07-9.71-2.33c-0.23-1.8-0.52-3.64-0.78-5.44c1.45,0.87,1.89,2.66,3.5,3.11
				c1.97,0.55,7.9-4.42,9.51-5.83C353.13,450.35,349.96,457.67,350.12,460.61z"/>
			<g>
				<path class="st20" d="M305.85,513.03c0,0.13,0.01,0.26,0,0.39c-0.14,1.85-2.63,7.07-3.11,9.71c-1.8,0-4.03,0.39-5.83,0.39
					c-1.67,0-3.48-0.39-5.05-0.39c1.25-3.53,1.98-7.21,2.72-10.87C296.15,513.84,301.72,512.69,305.85,513.03z"/>
				<path class="st16" d="M299.64,472.65c0.36,9.94,6.3,37.55,6.21,40.39c-4.13-0.34-9.7,0.8-11.26-0.78
					c2.63-13.03,3.77-26.34,4.27-39.61C299.25,472.65,299.25,472.65,299.64,472.65z"/>
			</g>
			<path class="st10" d="M313.62,523.13c-3.62,0-7.25,0-10.87,0c0.48-2.64,2.97-7.85,3.11-9.71
				C309.73,518.28,309.73,518.28,313.62,523.13z"/>
			<g>
				
					<linearGradient id="SVGID_00000155849580656267790830000010459578285722411913_" gradientUnits="userSpaceOnUse" x1="218.5436" y1="441.679" x2="223.4585" y2="507.1251">
					<stop  offset="0" style="stop-color:#7BB3C6"/>
					<stop  offset="1" style="stop-color:#B0C9CD"/>
				</linearGradient>
				<path style="fill:url(#SVGID_00000155849580656267790830000010459578285722411913_);" d="M227.79,436.92
					c0.92,7.01,0.24,16.25,5.44,21.94c4.96,5.43,24.13,12.27,12.82-7.77c2.11,1.29,11.23,8.92,9.32,1.36
					c0.58-0.19,0.58-0.19,1.17-0.39c0.03,5.4,0.29,10.9,0.39,16.31c0.11,5.69-0.16,11.4,0,17.09c0.14,4.87,0.58,22.71,0.78,24.08
					c-35.63,0-35.63,0-71.26,0c-1.52-20.68-0.15-41.45-0.19-62.14C199.68,442.46,213.74,439.49,227.79,436.92z"/>
				<path class="st20" d="M256.53,429.54c-0.03,7.51-0.04,15.02,0,22.52c-0.58,0.19-0.58,0.19-1.17,0.39
					c-0.24-0.95-7.55-15.48-9.71-16.89c1.4-2.54,1.99-5.19,2.72-7.96c0.71-2.7,2.26-5.75,2.33-8.54c2.91-6.99,2.91-6.99,5.83-13.98
					C256.09,409.57,256.56,422.86,256.53,429.54z"/>
			</g>
			<path class="st22" d="M343.13,455.95c-1.61-0.45-2.05-2.24-3.5-3.11c-0.38-2.74-1.43-5.91-1.55-10.87
				c0.29-2.55-0.35-4.36-0.39-5.05c-0.06-1.03,0.03-2.07,0-3.11c-0.23-9.17,0.01-18.4,0.19-27.57c5.86,8.52,9.54,18.12,13.01,27.77
				C351.21,437.74,342.34,450.39,343.13,455.95z"/>
			<g>
				
					<linearGradient id="SVGID_00000114038913904481140680000004445266708509861004_" gradientUnits="userSpaceOnUse" x1="329.3671" y1="487.489" x2="305.3036" y2="505.8871">
					<stop  offset="0" style="stop-color:#C37597"/>
					<stop  offset="1" style="stop-color:#583E79"/>
				</linearGradient>
				<path style="fill:url(#SVGID_00000114038913904481140680000004445266708509861004_);" d="M315.95,490.51
					c0.9,0.05,1.82-0.03,2.72,0c1.29,0.04,2.59-0.03,3.88,0c6.47,0.13,12.95-0.09,19.42,0c0.58,0,0.58,0,1.17,0
					c0.09,3.06,0.47,18.08,0.39,19.03c-0.41,4.91-3.09,9.85-6.21,13.59c-1.51,0-1.1,0.39-1.17,0.39
					c-7.48-0.01-15.02-0.39-22.52-0.39c-3.88-4.85-3.88-4.85-7.77-9.71c0.01-0.13,0-0.26,0-0.39c0.08-2.83-5.85-30.45-6.21-40.39
					c-0.02-0.43,0.12-0.81-0.39-0.78c3.55-3.16,6.9-6.66,9.71-10.49c0.78,14.27,0.78,14.27,1.55,28.54
					C312.14,490.94,314.14,490.4,315.95,490.51z"/>
				<path class="st24" d="M298.86,472.26c0,0.19,0,0.19,0,0.39c-0.5,13.27-1.64,26.58-4.27,39.61c-0.74,3.66-1.46,7.34-2.72,10.87
					c-8.93,0.01-17.86-0.02-26.8,0c-4.07-3.7-6.58-8.08-7.38-13.59c-0.2-1.37-0.64-19.21-0.78-24.08c1.84-0.36,0.83,1.23,1.36,1.55
					c0.26,0.16,2.47,0.43,3.69,0.78c3.61,1.02,25.48,3.88,18.45,6.6c-0.6,0.23-3.32-0.16-4.66,0c-0.36,0.08,1.31,1.78-6.6,0.78
					c-0.78,0.19-1.85,4.61-1.75,4.85c0.39,0.98,15.69,11.49,18.25,6.21c1.15-2.36,3.72-29.53,3.88-34.17
					c0.11-3.24-0.87-6.51,0.39-9.51C292.36,466.06,295.37,469.78,298.86,472.26z"/>
				<path class="st25" d="M344.3,406.63c-1.23,1.11-3.56,2.37-0.39,3.5c1.94,3.59,1.94,3.59,3.88,7.18
					c-1.72,1.75-1.11,6.27,0.39,7.77c1.04,1.05,5.02,0.52,6.6,0.58c4.9,0.19,9.85-0.14,14.76,0c0.01,0.09,0.93,0.58,1.17,1.36
					c0,0.97,0,0.97,0,1.94c-1.36,6.83-2.12,14.13-2.72,21.16c-0.03,0.38,0.01,0.78,0,1.17c-2.34,10.62-17.43,17.32-17.86,9.32
					c-0.16-2.93,3.01-10.26,2.52-10.49c-1.61,1.4-7.55,6.37-9.51,5.83c-0.79-5.56,8.08-18.21,7.77-21.94
					c-3.47-9.65-7.15-19.25-13.01-27.77c-0.19,9.17-0.42,18.4-0.19,27.57c-0.49-3.11-0.49-3.11-0.97-6.21
					c-4.76,0.58-4.76,0.58-9.51,1.17c0.11-4.9-0.4-9.83-0.39-14.76c4.95,0.39,4.95,0.39,9.9,0.78c0.67-3.47-0.56-7.09,0.97-10.29
					c-5.44-8.06-5.44-8.06-10.87-16.12c0-0.13,0-0.26,0-0.39c0.76-0.4,1.1-1.27,1.55-1.94C335.17,388.57,339.51,400.69,344.3,406.63
					z"/>
				<path class="st26" d="M369.54,425.27c-1.24-0.71-4.31,0.43-5.24,0c-0.6-0.28-6.91-9.06-8.74-9.9c0.29-4.42-0.96-2.94-1.17-3.5
					c-0.13-0.34,0.84-1.47-2.33-6.6c0.53-6.31-2.28-11.35-1.94-12.43c0.2-0.64,7.6-3.96,10.1-6.02c0.08-0.06,0.31,0.06,0.39,0
					c0.58,3.59,0.58,3.59,1.17,7.18C367.1,403.48,368.75,414.61,369.54,425.27z"/>
				<path class="st27" d="M359.83,384.1c0.2,0.91,0.65,1.7,0.39,2.72c-2.49,2.06-9.89,5.38-10.1,6.02
					c-0.34,1.07,2.47,6.12,1.94,12.43c3.17,5.13,2.2,6.26,2.33,6.6c0.2,0.56,1.46-0.93,1.17,3.5c1.83,0.84,8.14,9.63,8.74,9.9
					c0.93,0.43,4-0.71,5.24,0c0.01,0.13-0.01,0.26,0,0.39c-4.91-0.14-9.85,0.19-14.76,0c-10.12-13.66-2.57-4.81-4.66-14.17
					c-2.05-1.13-5.82-1.22-6.21-1.36c-3.17-1.13-0.84-2.39,0.39-3.5c0.82-0.74,4.21-2.7,4.27-3.3c0.44-4.11-7.97-2.48-8.16-3.88
					c3.3-2.52,3.3-2.52,6.6-5.05c-0.46-2.78,1.93-7.55,0-8.74C351.63,382.85,354.59,379.33,359.83,384.1z"/>
				<path class="st11" d="M338.08,441.97c0.12,4.96,1.17,8.13,1.55,10.87c0.25,1.8,0.55,3.64,0.78,5.44
					c1.26,9.89,2.41,22.32,2.72,32.23c-0.58,0-0.58,0-1.17,0c-5.05-0.29-5.05-0.29-10.1-0.58c-2.72-10.53-7.23-39.41,5.83-43.11
					c0.28-2.31-0.36-3.85-0.39-4.47c-0.02-0.41-0.1-2.32,0.19-2.33C337.79,441,337.79,441,338.08,441.97z"/>
				<path class="st27" d="M337.69,436.92c0.04,0.69,0.68,2.5,0.39,5.05c-0.29-0.97-0.29-0.97-0.58-1.94
					c-0.3,0.01-0.22,1.92-0.19,2.33c-1.66,0.27-6.53,1.71-7.57,2.33c-13.21,7.9-3.1,43.3-4.47,45.24c-0.43,0.6-2.27-0.33-2.72,0.58
					c-1.29-0.03-2.59,0.04-3.88,0c-0.6-11.56-2.63-23.16-1.94-34.76c0.12-2.05,1.95-7.47,0.39-7.57c0.96-1.46,2.29-2.92,2.72-4.66
					c1.77-2.15,5.98-6.58,6.21-6.99C330.18,437.64,337.08,433.56,337.69,436.92z"/>
				<path class="st11" d="M337.31,442.35c0.03,0.62,0.67,2.16,0.39,4.47c-13.05,3.7-8.55,32.57-5.83,43.11
					c5.05,0.29,5.05,0.29,10.1,0.58c-6.47-0.09-12.95,0.13-19.42,0c0.45-0.91,2.29,0.02,2.72-0.58c1.37-1.94-8.75-37.34,4.47-45.24
					C330.78,444.06,335.64,442.62,337.31,442.35z"/>
				<path class="st28" d="M317.11,448.18c-1.18,1.8-2.34,3.62-3.5,5.44c-1.49,2.34-3.16,5.72-4.66,7.77
					c-2.81,3.83-6.16,7.33-9.71,10.49c-0.19,0.19-0.19,0.19-0.39,0.39c-3.49-2.48-6.5-6.2-8.93-9.71
					c-3.31-4.78-5.06-8.67-10.49-16.12c-0.02-0.03,0.53-0.39,0.39-0.58c10.45,10.42,13.52,22.26,27.18,11.26
					c1.15-0.93,1.61-1.27,2.72-2.33c2.34-2.24,4.09-5,6.21-7.38c1.18-1.32,2.73-2.49,3.88-3.88
					C319.4,445.26,318.07,446.72,317.11,448.18z"/>
				<path class="st25" d="M315.95,490.51c-1.81-0.11-3.8,0.43-5.44-0.58c-0.78-14.27-0.78-14.27-1.55-28.54
					c1.5-2.05,3.17-5.43,4.66-7.77c1.74,0.04,0.08,3.32,0,4.47C313.05,466.4,314.93,481.57,315.95,490.51z"/>
				<path class="st29" d="M318.66,490.51c-0.9-0.03-1.82,0.05-2.72,0c-1.01-8.94-2.9-24.1-2.33-32.43c0.08-1.14,1.74-4.42,0-4.47
					c1.16-1.82,2.32-3.63,3.5-5.44c1.56,0.1-0.27,5.52-0.39,7.57C316.03,467.35,318.07,478.95,318.66,490.51z"/>
				<path class="st30" d="M299.64,472.65c-0.39,0-0.39,0-0.78,0c0-0.19,0-0.19,0-0.39c0.19-0.19,0.19-0.19,0.39-0.39
					C299.76,471.84,299.62,472.21,299.64,472.65z"/>
				<path class="st26" d="M332.65,347.21c2.38,2.74,3.95,3.54,4.27,3.88c2.8,3.02,7.47,7.64,9.71,10.49
					c3.34,4.24,12.12,17.73,13.2,22.52c-5.24-4.77-8.2-1.25-12.82,1.55c-2.69,1.63-5.16,3.43-7.57,5.44
					c-1.26-0.35-1.82-12.1-2.91-15.15c-1.63-4.54-7.64-3.57-9.32,0.97c-0.35,0.95-0.24,2.76-0.39,3.69
					c-1.67,0.19-0.31,5.8-0.78,8.35c-3.3,0.1-3.3,0.1-6.6,0.19c-0.05-3.48,0.05-6.6-0.39-10.1c-0.04-0.34,1.02-4.09-3.5-5.05
					c1.26-6.24-4.65-6.06-3.5,0c-0.39-0.02-1.71,0.02-2.72,0c-0.1-4.08-0.1-4.08-0.19-8.16c-10.1,0-10.1,0-20.19,0
					c-0.1,4.08-0.1,4.08-0.19,8.16c-0.41,0.02-2.16,0.28-3.11,0.39c-0.02-0.31,0.04-0.74,0-0.78c4.13,0.91,0.5-3.85,2.91-8.54
					c2.01-0.28,15.24,0.03,15.92-0.39c0.47-0.29-0.22-2.86-0.19-3.5c13.04-0.83,19.81-4.38,26.41-15.92
					C330.8,345.41,332.2,346.7,332.65,347.21z"/>
				<path class="st31" d="M248.37,427.6c-0.73,2.77-1.32,5.42-2.72,7.96c2.16,1.41,9.47,15.94,9.71,16.89
					c1.91,7.56-7.21-0.07-9.32-1.36c11.31,20.04-7.85,13.2-12.82,7.77c-5.2-5.69-4.52-14.94-5.44-21.94
					c-0.3-2.32-1.65-4.68-1.94-10.87C232.62,426.13,246.81,423.48,248.37,427.6z"/>
				<path class="st24" d="M268.18,423.71c0.27,7.04-1.18,6.99,4.66,13.59c-2.02,1.36-3.41,2.14-5.05,4.08
					c-3.37,3.99-6.64,12.92-7.38,18.25c0.39-4.47,0.39-4.47,0.78-8.93c-1.9,3.39-1.28,9.13-3.88,10.1
					c-0.19,3.79-0.19,3.79-0.39,7.57c-0.1-5.41-0.36-10.92-0.39-16.31c-0.04-7.51-0.03-15.02,0-22.52c1.11-5.3-0.68-9.95,2.52-3.11
					C260.15,426.81,265.57,422.22,268.18,423.71z"/>
				<path class="st25" d="M276.72,442.35c0.78,1.26,0.78,1.26,1.55,2.52c-3.19-2.73-4.75-2.42-7.96,0.19
					c-10.64,8.67-8.19,30.31-8.35,42.72c-1.22-0.35-3.43-0.62-3.69-0.78c-0.53-0.32,0.48-1.91-1.36-1.55
					c-0.16-5.69,0.11-11.4,0-17.09c0.19-3.79,0.19-3.79,0.39-7.57c2.61-0.97,1.99-6.7,3.88-10.1c-0.39,4.47-0.39,4.47-0.78,8.93
					c0.74-5.34,4.01-14.26,7.38-18.25c1.64-1.94,3.03-2.72,5.05-4.08c0.58,1.46,0.58,1.46,1.17,2.91
					C274.64,441.08,275.95,441.58,276.72,442.35z"/>
				<path class="st32" d="M279.83,445.85c0.14,0.2-0.41,0.55-0.39,0.58c5.42,7.45,7.18,11.34,10.49,16.12
					c-1.26,3-0.28,6.28-0.39,9.51c-0.16,4.64-2.74,31.81-3.88,34.17c-2.56,5.27-17.86-5.24-18.25-6.21
					c-0.1-0.25,0.97-4.67,1.75-4.85c7.92,1,6.24-0.7,6.6-0.78c1.34-0.16,4.06,0.23,4.66,0c7.03-2.72-14.83-5.58-18.45-6.6
					c0.16-12.4-2.29-34.05,8.35-42.72c3.21-2.61,4.77-2.92,7.96-0.19c-0.78-1.26-0.78-1.26-1.55-2.52c0.12,0.12,0.81-0.14,2.72,2.14
					C279.67,444.96,279.79,445.79,279.83,445.85z"/>
				<g>
					<path class="st31" d="M259.25,321.19c0.11,0.6,0.25,1.36,0.39,1.94c-1.16,0.96,1.04,4.22,1.17,5.24
						c0.47,3.72-0.52,17.16,0,18.64c0.1,0.3,0.51,0.2,0.78,0.19c-4.6,5.33-9.49,10.46-14.37,15.53c0.48-8.26-0.47-16.62-0.39-24.85
						c0.04-3.48,0.14-7.4,0.39-10.87c0.09-1.21,0.7-3.3,0.78-4.66C251.63,323.39,255.56,321.46,259.25,321.19z"/>
					<path class="st28" d="M265.46,334.78c0.36,1.34,0.65,6.62,0.39,7.77c-0.24,1.04-1.94,2.55-2.72,3.5
						c-0.19,0.23-1.34,0.91-1.55,1.17c-0.27,0-0.67,0.1-0.78-0.19c-0.52-1.48,0.47-14.92,0-18.64c-0.13-1.03-2.32-4.28-1.17-5.24
						C260.92,328.65,264.92,332.73,265.46,334.78z"/>
				</g>
				<path class="st25" d="M301.19,350.32c1.59-0.12,3.1-0.5,4.66-0.78c-2.64,3.37-9.48,3.33-11.26,7.38
					c-2.45,0.36-4.98,0.52-7.38,1.17c-8.71-2.16-16.27-8.19-21.36-15.53c0.26-1.15-0.03-6.42-0.39-7.77
					C275.16,347.37,285.32,351.48,301.19,350.32z"/>
				<path class="st27" d="M329.15,343.33c-5.59,13.59-21.16,16.71-34.56,15.92c-2.52-0.15-4.93-0.56-7.38-1.17
					c2.4-0.64,4.93-0.8,7.38-1.17c6.76-1,12.9-2.81,19.22-5.44c0.29-2.33,0.29-2.33,0.58-4.66c5.28-2.34,9.51-5.7,13.2-10.1
					C328.17,338.53,328.86,342.71,329.15,343.33z"/>
				<path class="st29" d="M294.59,356.92c1.79-4.04,8.62-4.01,11.26-7.38c3.2-0.57,5.59-1.41,8.54-2.72
					c-0.29,2.33-0.29,2.33-0.58,4.66C307.49,354.11,301.35,355.92,294.59,356.92z"/>
				<g>
					<path class="st25" d="M345.85,321.58c-1.3,4.69,0.36,5.15,0.39,5.44c0.26,3.04-0.06,7.19,0,10.49
						c0.14,8.03-0.31,16.06,0.39,24.08c-2.24-2.85-6.91-7.46-9.71-10.49c-0.77-4.92,0.17-22.7,0-23.88
						c-0.03-0.2-1.04-0.17-1.17-0.97c0.38-0.87,0.76-4.09,0.97-4.27C340.06,322.53,342.7,322.73,345.85,321.58z"/>
					<path class="st24" d="M336.92,351.09c-0.32-0.35-1.89-1.14-4.27-3.88c0.95-7.67-0.52-11.17,1.94-19.03
						c0.17-0.53,0.91-1.35,1.17-1.94c0.13,0.81,1.14,0.77,1.17,0.97C337.09,328.39,336.14,346.17,336.92,351.09z"/>
					<path class="st28" d="M334.59,328.18c-2.47,7.86-0.99,11.36-1.94,19.03c-0.45-0.51-1.85-1.8-1.94-1.94
						c-0.58-0.86-1.5-1.83-1.55-1.94c-0.29-0.62-0.98-4.79-1.55-6.6c1.73-2.06,4.75-6.52,5.83-8.93
						C334,327.99,334,327.99,334.59,328.18z"/>
				</g>
				<path class="st11" d="M326.82,380.61c-0.7,4.33,0.02,6.46,0,7.38c0,0.13,0,0.26,0,0.39c-0.15,8.53,0.02,17.09,0,25.63
					c-0.01,4.93,0.5,9.86,0.39,14.76c-0.04,1.88,0.03,3.76,0,5.63c-1.09,0.84-1.11,2.03-1.17,2.14c-0.23,0.41-4.44,4.84-6.21,6.99
					c-1.15,1.39-2.71,2.56-3.88,3.88c-0.66-1.24-4.56,0.09-7.96-0.39c-6.95-0.97-13.53-4.83-16.89-11.07
					c0.99-3.29-2.14-6.1-1.55-9.51c1.55-0.05,11.28,0.26,11.65-0.19c-0.63-5.3-4.66-4.72-7.38-5.24c-0.5-2.16,6.98-4.36,14.37-8.93
					c3.01-1.86,8.3-4.81,10.1-7.77c1.5-2.48,0.75-2.95,0.78-3.11c0.37-2.64,0.3-4.77,0.39-7.38c0.02-0.52-0.01-1.04,0-1.55
					c0.03-1.03,0.02-2.08,0-3.11c3.3-0.1,3.3-0.1,6.6-0.19C326.51,386.4,325.15,380.8,326.82,380.61z"/>
				<path class="st33" d="M347.01,385.66c1.93,1.19-0.46,5.96,0,8.74c-3.3,2.52-3.3,2.52-6.6,5.05c0.19,1.4,8.6-0.22,8.16,3.88
					c-0.06,0.6-3.45,2.56-4.27,3.3c-4.78-5.93-9.13-18.06-15.92-20.58c2.19-3.23,5.24-7.96,8.16-10.1
					c1.09,3.05,1.65,14.79,2.91,15.15C341.86,389.09,344.33,387.29,347.01,385.66z"/>
				<path class="st31" d="M326.82,414.01c0.02-8.54-0.15-17.1,0-25.63c5.44,8.06,5.44,8.06,10.87,16.12
					c-1.53,3.21-0.3,6.82-0.97,10.29C331.77,414.39,331.77,414.39,326.82,414.01z"/>
				<path class="st29" d="M337.69,433.81c0.03,1.03-0.06,2.08,0,3.11c-0.62-3.36-7.51,0.72-11.65-0.39
					c0.06-0.11,0.08-1.29,1.17-2.14c0.03-1.88-0.04-3.76,0-5.63c4.76-0.58,4.76-0.58,9.51-1.17
					C337.21,430.7,337.21,430.7,337.69,433.81z"/>
				<path class="st27" d="M336.53,375.95c-2.91,2.14-5.96,6.87-8.16,10.1c-0.45,0.67-0.79,1.54-1.55,1.94c0.02-0.92-0.7-3.05,0-7.38
					c0.15-0.93,0.04-2.74,0.39-3.69C328.88,372.38,334.9,371.41,336.53,375.95z"/>
				<path class="st33" d="M354.78,425.66c-1.59-0.06-5.56,0.46-6.6-0.58c-1.49-1.5-2.11-6.02-0.39-7.77
					c-1.94-3.59-1.94-3.59-3.88-7.18c0.39,0.14,4.17,0.22,6.21,1.36C352.22,420.85,344.66,412,354.78,425.66z"/>
				<path class="st34" d="M281,403.91c-0.62,5.82,0.42,7.74,0.39,8.16c-0.14,2.06-1.41,4.72-1.55,6.8
					c-1.07,15.34-1.59,17.89,11.46,32.04c2.61-2.4,4.86,1.49,6.6,2.33c5.67,2.75,8.27,2.86,8.93,3.11c0.31,0.12,0.19,0.52,0.19,0.78
					c-13.67,11-16.73-0.84-27.18-11.26c-0.04-0.06-0.16-0.88-0.39-1.36c-1.91-2.28-2.6-2.01-2.72-2.14
					c-0.77-0.78-2.08-1.28-2.72-2.14c-0.58-1.46-0.58-1.46-1.17-2.91c-5.84-6.6-4.39-6.56-4.66-13.59
					c-0.49-12.78,0.42-25.66,0-38.45c-0.02-0.52,0.02-1.04,0-1.55c2.38-4.58,3.56,3.47,6.8,4.27c5.97,1.48,3.3-4.74,4.47-8.16
					c-0.6,5.84,0.45,16.41,0,23.11C279.55,403.24,280.63,403.81,281,403.91z"/>
				<path class="st32" d="M299.64,412.06c0.26,1.29-5.2,0.78-7.57,1.55c-1.03,0.34-5.04,3.24-5.24,4.08
					c-0.91,3.71,3.93,2.71,6.99,3.3c2.72,0.52,6.74-0.06,7.38,5.24c-0.37,0.45-10.1,0.14-11.65,0.19c-3.74,0.12-6.68-1.85-3.88,6.8
					c1.06,3.29,4.68,8.06,4.66,8.54c-0.04,1.27-1.42,0.83-1.55,1.17c-0.14,0.35,4.35,5.3,4.85,5.63c0.11,0.07,0.22-1.14,0.78-0.78
					c6.34,4.08,7.3,4.83,15.34,6.99c-1.11,1.06-1.57,1.4-2.72,2.33c0-0.26,0.11-0.66-0.19-0.78c-0.66-0.25-3.27-0.36-8.93-3.11
					c-1.74-0.84-4-4.73-6.6-2.33c-13.04-14.15-12.53-16.7-11.46-32.04c0.15-2.08,1.41-4.74,1.55-6.8c2.96-1.79,1.19,0.32,1.75,0.39
					c0.07,0.01,1.1-0.78,1.17-0.78C289.43,411.6,294.51,411.91,299.64,412.06z"/>
				<path class="st29" d="M289.54,426.43c-0.58,3.41,2.54,6.22,1.55,9.51c3.36,6.24,9.94,10.09,16.89,11.07
					c3.4,0.48,7.3-0.85,7.96,0.39c-2.13,2.38-3.87,5.14-6.21,7.38c-8.04-2.16-9-2.91-15.34-6.99c-0.56-0.36-0.66,0.85-0.78,0.78
					c-0.5-0.33-4.99-5.29-4.85-5.63c0.13-0.34,1.51,0.11,1.55-1.17c0.02-0.49-3.6-5.25-4.66-8.54
					C282.86,424.58,285.8,426.56,289.54,426.43z"/>
				<path class="st10" d="M309.34,374.01c-2.39-0.06-19.47-0.05-20.58,0c0.1-4.08,0.1-4.08,0.19-8.16c10.1,0,10.1,0,20.19,0
					C309.25,369.93,309.25,369.93,309.34,374.01z"/>
				<path class="st29" d="M284.88,360.41c0.51,3.29-1.07,11.53,0.78,13.2c0.04,0.04-0.02,0.46,0,0.78c-2.43,0.28-5.34,0.41-6.21,3.5
					c-3.43,2.04-2.13-13.97-1.55-18.64C280.08,359.95,282.6,360.09,284.88,360.41z"/>
				<path class="st11" d="M294.59,361.19c2.93,0.08,6.86,0.18,9.71,0c-0.02,0.63,0.67,3.2,0.19,3.5c-0.68,0.42-13.91,0.1-15.92,0.39
					c-2.41,4.69,1.21,9.46-2.91,8.54c-1.84-1.67-0.26-9.91-0.78-13.2C288.41,360.91,291.03,361.09,294.59,361.19z"/>
				<path class="st33" d="M330.7,345.27c-6.6,11.55-13.36,15.09-26.41,15.92c-2.85,0.18-6.77,0.08-9.71,0c0-0.97,0-0.97,0-1.94
					c13.4,0.78,28.98-2.33,34.56-15.92C329.2,343.44,330.13,344.41,330.7,345.27z"/>
				<path class="st35" d="M315.56,374.01c-0.17-0.04-0.8,0.13-3.5,0C310.91,367.95,316.82,367.77,315.56,374.01z"/>
				<g>
					<path class="st29" d="M249.93,415.17c0.59,1.45,0.82,2.27,0.78,3.88c-0.07,2.8-1.62,5.85-2.33,8.54
						c-1.57-4.12-15.76-1.47-22.52-1.55c-0.53-13.72,3.62-26.86,6.99-40c8.93,5.73,8.93,5.73,17.86,11.46
						c0.24,0.72-3.63,12.9-3.5,13.98C247.24,411.71,249.84,414.96,249.93,415.17z"/>
					<path class="st25" d="M264.3,349.15c1.59,11.01,3.4,21.89,3.88,33.01c-10.8-10.75-9.23-0.62-11.26,12.62
						c-1.45,1.3-2.01-1.22-3.88-1.55c2.92,9.63-2.41,12.42-3.11,21.94c-0.09-0.21-2.69-3.46-2.72-3.69
						c-0.14-1.08,3.73-13.26,3.5-13.98c-8.93-5.73-8.93-5.73-17.86-11.46c0.28-1.1-0.55-3.61,0.78-5.83
						c9.51,5.92,9.51,5.92,19.03,11.84c-0.87-12.8,2.84-16-8.54-24.66c1.32-1.79,3.27-3.44,3.11-4.66
						c4.88-5.07,9.77-10.2,14.37-15.53c0.22-0.25,1.36-0.93,1.55-1.17C263.8,346.99,263.68,348.15,264.3,349.15z"/>
					<path class="st29" d="M233.62,380.22c2.73-4.84,7.25-8.42,10.49-12.82c11.38,8.66,7.68,11.86,8.54,24.66
						C243.13,386.14,243.13,386.14,233.62,380.22z"/>
					<path class="st25" d="M268.18,382.16c0.02,0.52-0.02,1.04,0,1.55c0.02,0.52-0.02,1.04,0,1.55
						c-2.24,1.49-11.39,16.06-11.65,17.28c-0.06,0.83,0.08,1.7,0,2.52c-2.91,6.99-2.91,6.99-5.83,13.98
						c0.04-1.61-0.19-2.44-0.78-3.88c0.7-9.52,6.03-12.31,3.11-21.94c1.87,0.33,2.44,2.85,3.88,1.55
						C258.95,381.54,257.38,371.42,268.18,382.16z"/>
				</g>
				<path class="st25" d="M277.89,359.25c-0.58,4.67-1.88,20.68,1.55,18.64c-0.06,0.2,0.04,0.54,0,0.78c-0.07,0.37,0.04,0.79,0,1.17
					c-1.17,3.41,1.5,9.64-4.47,8.16c-3.24-0.8-4.42-8.86-6.8-4.27c-0.02-0.52,0.02-1.04,0-1.55c-0.48-11.12-2.3-22-3.88-33.01
					C266.54,352.82,273.8,357.95,277.89,359.25z"/>
				<path class="st25" d="M287.21,358.08c2.45,0.61,4.86,1.02,7.38,1.17c0,0.97,0,0.97,0,1.94c-3.56-0.1-6.18-0.28-9.71-0.78
					c-2.28-0.32-4.79-0.47-6.99-1.17c-4.08-1.3-11.35-6.43-13.59-10.1c-0.62-1.01-0.49-2.16-1.17-3.11c0.78-0.94,2.48-2.46,2.72-3.5
					C270.94,349.9,278.5,355.92,287.21,358.08z"/>
				<path class="st31" d="M268.18,385.27c0.42,12.78-0.49,25.67,0,38.45c-2.61-1.49-8.03,3.1-9.13,2.72
					c-3.21-6.84-1.42-2.19-2.52,3.11c0.03-6.68-0.44-19.97,0-24.47c0.08-0.83-0.06-1.69,0-2.52
					C256.79,401.33,265.94,386.75,268.18,385.27z"/>
				<g>
					<path class="st10" d="M265.46,283.91c-2.01,4.65-6.26,8.57-6.99,13.79c-0.47,3.36,0.11,19.75,0.78,23.49
						c-3.69,0.26-7.62,2.2-11.26,1.17c-1.23-0.35-1.94-0.71-2.72-1.75c-2.42-3.24-2.14-27.42-0.39-31.46
						C248.26,281.35,258.74,284.55,265.46,283.91z"/>
					<path class="st36" d="M345.85,321.58c-3.15,1.15-5.79,0.95-9.13,0.39c-0.21,0.18-0.59,3.4-0.97,4.27
						c-0.25,0.59-1,1.41-1.17,1.94c-0.58-0.19-0.58-0.19-1.17-0.39c4.3-9.66,1.58-21.22,2.33-31.65c-1.77-4.73-4.85-8.58-7.77-12.62
						c6.79,0.42,18.73-2.25,21.75,6.02c1.29,3.54,1.37,26.61-0.39,29.51C348.6,320.29,347.2,321.09,345.85,321.58z"/>
					<g>
						<path class="st12" d="M274.01,284.3c-13.62,7.87-12.95,38.02-4.66,49.13c9.11,12.2,22.95,11.42,28.74,12.62
							c3,0.62,1.69,0.48,3.11,4.27c-15.87,1.17-26.03-2.94-35.73-15.53c-0.55-2.05-4.55-6.13-5.83-11.65
							c-0.14-0.58-0.28-1.34-0.39-1.94c-0.67-3.74-1.25-20.14-0.78-23.49c0.73-5.22,4.98-9.13,6.99-13.79
							c1.63-0.39,6.67-7,7.77-8.93c0.3-0.27,0.85-0.51,1.17-0.78C274.2,279.25,274.2,279.25,274.01,284.3z"/>
						<path class="st36" d="M261.77,306.43c0.84,2.28,1.27,4.77,0.97,7.18C261.57,323.19,258.63,310.73,261.77,306.43z"/>
					</g>
					<g>
						<path class="st8" d="M327.99,283.52c2.92,4.04,6,7.89,7.77,12.62c-0.75,10.43,1.97,21.99-2.33,31.65
							c-1.08,2.42-4.09,6.87-5.83,8.93c-3.69,4.4-7.92,7.75-13.2,10.1c-2.95,1.31-5.34,2.15-8.54,2.72
							c-1.56,0.28-3.07,0.66-4.66,0.78c-1.41-3.79-0.11-3.65-3.11-4.27c11.27-0.32,28.09-8.02,31.46-19.61
							c1.85-6.35,1.69-25.52-0.39-31.84c-6.47-19.65-42.19-17.78-55.14-10.29c0.19-5.05,0.19-5.05,0.39-10.1
							c1.74-1.46,3.03-2.68,5.05-3.88c10.36-6.17,20.81-7.12,32.04-2.33C318.83,271.13,323.47,277.26,327.99,283.52z"/>
						<path class="st10" d="M332.84,306.82c0.82-0.09,1.34,2.9,1.36,3.3C334.66,317.87,329.97,316.87,332.84,306.82z"/>
					</g>
					<g>
						<path class="st35" d="M298.08,346.05c-5.78-1.21-19.63-0.42-28.74-12.62c-8.29-11.1-8.96-41.26,4.66-49.13
							c12.96-7.49,48.68-9.36,55.14,10.29c2.08,6.32,2.23,25.5,0.39,31.84C326.17,338.03,309.35,345.73,298.08,346.05z"/>
						<path class="st8" d="M298.67,287.02c20.11-1.28,21.76,26.7,1.55,24.08C284.95,309.11,285,287.88,298.67,287.02z"/>
					</g>
				</g>
				<path class="st37" d="M318.28,404.3c-1.79,2.96-7.09,5.9-10.1,7.77c-2.84-0.06-5.7,0.08-8.54,0
					c-5.12-0.15-10.21-0.47-15.34-0.39c-0.07,0-1.1,0.79-1.17,0.78c-0.56-0.07,1.21-2.18-1.75-0.39c0.03-0.42-1.01-2.34-0.39-8.16
					C283.86,404.69,311.14,403.05,318.28,404.3z"/>
				<path class="st38" d="M308.18,412.06c-7.39,4.57-14.87,6.78-14.37,8.93c-3.06-0.59-7.9,0.41-6.99-3.3
					c0.21-0.84,4.21-3.74,5.24-4.08c2.38-0.78,7.83-0.26,7.57-1.55C302.48,412.15,305.34,412,308.18,412.06z"/>
				<g>
					<path class="st9" d="M309.34,374.01c1.01,0.02,2.33-0.02,2.72,0c2.7,0.13,3.32-0.04,3.5,0c4.52,0.96,3.45,4.71,3.5,5.05
						c-7.28,0-7.28,0-14.56,0c-0.28,4.38-0.29,8.82-0.19,13.2c0.01,0.52-0.02,1.04,0,1.55c0.03,1.03-0.06,2.08,0,3.11
						c-3.69-0.58-3.69-0.58-7.38-1.17c5.51-3.33,4.83-8.47,1.94-9.71c1.04-3.44-3.36-1.55-10.29-3.5c-2.71-0.76-6.42-2.8-9.13-3.88
						c0.04-0.24-0.06-0.57,0-0.78c0.88-3.08,3.78-3.22,6.21-3.5c0.94-0.11,2.7-0.37,3.11-0.39
						C289.88,373.95,306.95,373.95,309.34,374.01z"/>
					<path class="st36" d="M319.05,379.05c0.44,3.5,0.34,6.61,0.39,10.1c0.02,1.03,0.03,2.08,0,3.11c-7.57,0-7.57,0-15.15,0
						c-0.09-4.39-0.09-8.82,0.19-13.2C311.77,379.05,311.77,379.05,319.05,379.05z"/>
					<path class="st39" d="M298.86,386.04c-3.78-1.62-3.69,2.45-6.8,4.66c-1.05,0.75-5.3,1.74-5.63,2.91
						c-0.72,2.53,3.83,6.16,10.49,2.14c3.69,0.58,3.69,0.58,7.38,1.17c0.04,0.76-0.21,3.99,0.19,4.27c7.28,0,7.28,0,14.56,0
						c-0.02,0.16,0.72,0.63-0.78,3.11c-7.14-1.24-34.42,0.39-37.28-0.39c-0.36-0.1-1.45-0.67-1.55-0.97c0.45-6.7-0.6-17.27,0-23.11
						c0.04-0.38-0.07-0.8,0-1.17c2.71,1.09,6.42,3.13,9.13,3.88C295.5,384.49,299.9,382.61,298.86,386.04z"/>
					<path class="st10" d="M319.44,393.81c-0.09,2.61-0.02,4.74-0.39,7.38c-7.28,0-7.28,0-14.56,0c-0.4-0.28-0.15-3.52-0.19-4.27
						c-0.06-1.03,0.03-2.08,0-3.11C311.87,393.81,311.87,393.81,319.44,393.81z"/>
					<path class="st40" d="M319.44,392.26c-0.01,0.52,0.02,1.04,0,1.55c-7.57,0-7.57,0-15.15,0c-0.02-0.52,0.01-1.04,0-1.55
						C311.87,392.26,311.87,392.26,319.44,392.26z"/>
					<path class="st10" d="M298.86,386.04c2.89,1.24,3.57,6.38-1.94,9.71c-6.66,4.02-11.21,0.39-10.49-2.14
						c0.33-1.17,4.58-2.17,5.63-2.91C295.17,388.49,295.08,384.42,298.86,386.04z"/>
				</g>
			</g>
		</g>
	</g>
</g>
</svg>
